<?xml version="1.0" encoding="UTF-8"?>
<!DOCTYPE score-partwise PUBLIC "-//Recordare//DTD MusicXML 2.0 Partwise//EN"
  "http://www.musicxml.org/dtds/partwise.dtd">
<score-partwise version="2.0">
  <work>
    <work-title>Its me O Lord</work-title>
  </work>
  <identification>
    <creator type="composer">Band</creator>
    <creator type="lyricist"/>
    <rights/>
    <encoding>
      <software>Noteflight version 0.3.2</software>
      <encoding-date>2013-04-17</encoding-date>
      <supports attribute="new-system" element="print" type="no" value="no"/>
      <supports attribute="new-page" element="print" type="no" value="no"/>
    </encoding>
  </identification>
  <defaults>
    <scaling>
      <millimeters>2.1166666679999997</millimeters>
      <tenths>10</tenths>
    </scaling>
    <page-layout>
      <page-height>1320</page-height>
      <page-width>1020</page-width>
      <page-margins type="both">
        <left-margin>59.583333333333336</left-margin>
        <right-margin>56.66666666666667</right-margin>
        <top-margin>96.66666666666667</top-margin>
        <bottom-margin>80</bottom-margin>
      </page-margins>
    </page-layout>
    <system-layout>
      <system-margins>
        <left-margin>59.583333333333336</left-margin>
        <right-margin>26.666666666666668</right-margin>
      </system-margins>
      <system-distance>55</system-distance>
      <top-system-distance>108.33333333333334</top-system-distance>
    </system-layout>
    <staff-layout>
      <staff-distance>50</staff-distance>
    </staff-layout>
  </defaults>
  <credit page="1">
    <credit-words font-size="24" default-x="510" default-y="1260" justify="center" valign="top">Its me O Lord</credit-words>
  </credit>
  <credit page="1">
    <credit-words font-size="12" default-x="918" default-y="1210" justify="right" valign="top">Band</credit-words>
  </credit>
  <part-list>
    <score-part id="P1">
      <part-name>Flute</part-name>
      <part-abbreviation>Fl</part-abbreviation>
      <score-instrument id="P1I1">
        <instrument-name>Flute</instrument-name>
      </score-instrument>
      <midi-instrument id="P1I1">
        <midi-channel>1</midi-channel>
        <midi-program>74</midi-program>
      </midi-instrument>
    </score-part>
    <score-part id="P2">
      <part-name>Piano</part-name>
      <part-abbreviation>Pno</part-abbreviation>
      <score-instrument id="P2I1">
        <instrument-name>Piano</instrument-name>
      </score-instrument>
      <midi-instrument id="P2I1">
        <midi-channel>2</midi-channel>
        <midi-program>1</midi-program>
      </midi-instrument>
    </score-part>
    <score-part id="P3">
      <part-name>Upright Bass</part-name>
      <part-abbreviation>B</part-abbreviation>
      <score-instrument id="P3I1">
        <instrument-name>Upright Bass</instrument-name>
      </score-instrument>
      <midi-instrument id="P3I1">
        <midi-channel>3</midi-channel>
        <midi-program>34</midi-program>
      </midi-instrument>
    </score-part>
    <score-part id="P4">
      <part-name>Drums</part-name>
      <part-abbreviation>D</part-abbreviation>
      <score-instrument id="P4I1">
        <instrument-name>Drums</instrument-name>
      </score-instrument>
      <midi-instrument id="P4I1">
        <midi-channel>10</midi-channel>
        <midi-program>1</midi-program>
      </midi-instrument>
    </score-part>
  </part-list>
  <part id="P1">
    <measure number="1">
      <attributes>
        <divisions>64</divisions>
        <key>
          <fifths>0</fifths>
          <mode>major</mode>
        </key>
        <time>
          <beats>4</beats>
          <beat-type>4</beat-type>
        </time>
        <clef number="1">
          <sign>G</sign>
          <line>2</line>
        </clef>
      </attributes>
      <direction placement="above">
        <direction-type>
          <metronome>
            <beat-unit>quarter</beat-unit>
            <per-minute>177</per-minute>
          </metronome>
        </direction-type>
        <sound tempo="177"/>
      </direction>
      <direction placement="above">
        <direction-type>
          <metronome>
            <beat-unit>quarter</beat-unit>
            <per-minute>177</per-minute>
          </metronome>
        </direction-type>
        <sound tempo="177"/>
      </direction>
      <note>
        <pitch>
          <step>A</step>
          <octave>4</octave>
        </pitch>
        <duration>192</duration>
        <voice>1</voice>
        <type>half</type>
        <dot/>
      </note>
      <note>
        <pitch>
          <step>A</step>
          <octave>4</octave>
        </pitch>
        <duration>64</duration>
        <voice>1</voice>
        <type>quarter</type>
      </note>
    </measure>
    <measure number="2">
      <attributes/>
      <note>
        <pitch>
          <step>A</step>
          <octave>4</octave>
        </pitch>
        <duration>64</duration>
        <voice>1</voice>
        <type>quarter</type>
      </note>
      <note>
        <pitch>
          <step>G</step>
          <octave>4</octave>
        </pitch>
        <duration>64</duration>
        <voice>1</voice>
        <type>quarter</type>
      </note>
      <note>
        <pitch>
          <step>F</step>
          <octave>4</octave>
        </pitch>
        <duration>128</duration>
        <voice>1</voice>
        <type>half</type>
      </note>
    </measure>
    <measure number="3">
      <attributes/>
      <note>
        <pitch>
          <step>F</step>
          <octave>4</octave>
        </pitch>
        <duration>64</duration>
        <voice>1</voice>
        <type>quarter</type>
      </note>
      <note>
        <pitch>
          <step>F</step>
          <octave>4</octave>
        </pitch>
        <duration>64</duration>
        <voice>1</voice>
        <type>quarter</type>
      </note>
      <note>
        <pitch>
          <step>G</step>
          <octave>4</octave>
        </pitch>
        <duration>64</duration>
        <voice>1</voice>
        <type>quarter</type>
      </note>
      <note>
        <pitch>
          <step>G</step>
          <octave>4</octave>
        </pitch>
        <duration>64</duration>
        <voice>1</voice>
        <type>quarter</type>
      </note>
    </measure>
    <measure number="4">
      <print new-system="yes"/>
      <attributes/>
      <note>
        <pitch>
          <step>A</step>
          <octave>4</octave>
        </pitch>
        <duration>192</duration>
        <voice>1</voice>
        <type>half</type>
        <dot/>
      </note>
      <note>
        <pitch>
          <step>A</step>
          <octave>4</octave>
        </pitch>
        <duration>64</duration>
        <voice>1</voice>
        <type>quarter</type>
      </note>
    </measure>
    <measure number="5">
      <attributes/>
      <note>
        <pitch>
          <step>A</step>
          <octave>4</octave>
        </pitch>
        <duration>192</duration>
        <voice>1</voice>
        <type>half</type>
        <dot/>
      </note>
      <note>
        <pitch>
          <step>A</step>
          <octave>4</octave>
        </pitch>
        <duration>64</duration>
        <voice>1</voice>
        <type>quarter</type>
      </note>
    </measure>
    <measure number="6">
      <attributes/>
      <note>
        <pitch>
          <step>A</step>
          <octave>4</octave>
        </pitch>
        <duration>64</duration>
        <voice>1</voice>
        <type>quarter</type>
      </note>
      <note>
        <pitch>
          <step>G</step>
          <octave>4</octave>
        </pitch>
        <duration>64</duration>
        <voice>1</voice>
        <type>quarter</type>
      </note>
      <note>
        <pitch>
          <step>F</step>
          <octave>4</octave>
        </pitch>
        <duration>128</duration>
        <voice>1</voice>
        <type>half</type>
      </note>
    </measure>
    <measure number="7">
      <attributes/>
      <note>
        <pitch>
          <step>F</step>
          <octave>4</octave>
        </pitch>
        <duration>64</duration>
        <voice>1</voice>
        <type>quarter</type>
      </note>
      <note>
        <pitch>
          <step>F</step>
          <octave>4</octave>
        </pitch>
        <duration>64</duration>
        <voice>1</voice>
        <type>quarter</type>
      </note>
      <note>
        <pitch>
          <step>G</step>
          <octave>4</octave>
        </pitch>
        <duration>64</duration>
        <voice>1</voice>
        <type>quarter</type>
      </note>
      <note>
        <pitch>
          <step>G</step>
          <octave>4</octave>
        </pitch>
        <duration>64</duration>
        <voice>1</voice>
        <type>quarter</type>
      </note>
    </measure>
    <measure number="8">
      <attributes/>
      <note>
        <pitch>
          <step>F</step>
          <octave>4</octave>
        </pitch>
        <duration>128</duration>
        <voice>1</voice>
        <type>half</type>
      </note>
      <note>
        <rest/>
        <duration>64</duration>
        <voice>1</voice>
        <type>quarter</type>
      </note>
      <note>
        <pitch>
          <step>A</step>
          <octave>4</octave>
        </pitch>
        <duration>64</duration>
        <voice>1</voice>
        <type>quarter</type>
      </note>
      <barline location="right">
        <bar-style>light-heavy</bar-style>
        <repeat direction="backward"/>
      </barline>
    </measure>
  </part>
  <part id="P2">
    <measure number="1">
      <attributes>
        <divisions>64</divisions>
        <key>
          <fifths>0</fifths>
          <mode>major</mode>
        </key>
        <time>
          <beats>4</beats>
          <beat-type>4</beat-type>
        </time>
        <staves>2</staves>
        <clef number="1">
          <sign>G</sign>
          <line>2</line>
        </clef>
      </attributes>
      <direction placement="above">
        <direction-type>
          <metronome>
            <beat-unit>quarter</beat-unit>
            <per-minute>177</per-minute>
          </metronome>
        </direction-type>
        <sound tempo="177"/>
      </direction>
      <note>
        <rest/>
        <duration>64</duration>
        <voice>1</voice>
        <type>quarter</type>
        <staff>1</staff>
      </note>
      <note>
        <pitch>
          <step>F</step>
          <octave>4</octave>
        </pitch>
        <duration>64</duration>
        <voice>1</voice>
        <type>quarter</type>
        <staff>1</staff>
      </note>
      <note>
        <rest/>
        <duration>64</duration>
        <voice>1</voice>
        <type>quarter</type>
        <staff>1</staff>
      </note>
      <note>
        <pitch>
          <step>F</step>
          <octave>4</octave>
        </pitch>
        <duration>64</duration>
        <voice>1</voice>
        <type>quarter</type>
        <staff>1</staff>
      </note>
      <backup>
        <duration>256</duration>
      </backup>
      <attributes>
        <clef number="2">
          <sign>F</sign>
          <line>4</line>
        </clef>
      </attributes>
      <note>
        <rest/>
        <duration>64</duration>
        <voice>3</voice>
        <type>quarter</type>
        <staff>2</staff>
      </note>
      <note>
        <pitch>
          <step>F</step>
          <octave>3</octave>
        </pitch>
        <duration>64</duration>
        <voice>3</voice>
        <type>quarter</type>
        <staff>2</staff>
      </note>
      <note>
        <chord/>
        <pitch>
          <step>A</step>
          <octave>3</octave>
        </pitch>
        <duration>64</duration>
        <voice>3</voice>
        <type>quarter</type>
        <staff>2</staff>
      </note>
      <note>
        <rest/>
        <duration>64</duration>
        <voice>3</voice>
        <type>quarter</type>
        <staff>2</staff>
      </note>
      <note>
        <pitch>
          <step>F</step>
          <octave>3</octave>
        </pitch>
        <duration>64</duration>
        <voice>3</voice>
        <type>quarter</type>
        <staff>2</staff>
      </note>
      <note>
        <chord/>
        <pitch>
          <step>A</step>
          <octave>3</octave>
        </pitch>
        <duration>64</duration>
        <voice>3</voice>
        <type>quarter</type>
        <staff>2</staff>
      </note>
    </measure>
    <measure number="2">
      <attributes/>
      <note>
        <rest/>
        <duration>64</duration>
        <voice>1</voice>
        <type>quarter</type>
        <staff>1</staff>
      </note>
      <note>
        <pitch>
          <step>F</step>
          <octave>4</octave>
        </pitch>
        <duration>64</duration>
        <voice>1</voice>
        <type>quarter</type>
        <staff>1</staff>
      </note>
      <note>
        <rest/>
        <duration>64</duration>
        <voice>1</voice>
        <type>quarter</type>
        <staff>1</staff>
      </note>
      <note>
        <pitch>
          <step>F</step>
          <octave>4</octave>
        </pitch>
        <duration>64</duration>
        <voice>1</voice>
        <type>quarter</type>
        <staff>1</staff>
      </note>
      <backup>
        <duration>256</duration>
      </backup>
      <attributes/>
      <note>
        <rest/>
        <duration>64</duration>
        <voice>3</voice>
        <type>quarter</type>
        <staff>2</staff>
      </note>
      <note>
        <pitch>
          <step>F</step>
          <octave>3</octave>
        </pitch>
        <duration>64</duration>
        <voice>3</voice>
        <type>quarter</type>
        <staff>2</staff>
      </note>
      <note>
        <chord/>
        <pitch>
          <step>A</step>
          <octave>3</octave>
        </pitch>
        <duration>64</duration>
        <voice>3</voice>
        <type>quarter</type>
        <staff>2</staff>
      </note>
      <note>
        <rest/>
        <duration>64</duration>
        <voice>3</voice>
        <type>quarter</type>
        <staff>2</staff>
      </note>
      <note>
        <pitch>
          <step>F</step>
          <octave>3</octave>
        </pitch>
        <duration>64</duration>
        <voice>3</voice>
        <type>quarter</type>
        <staff>2</staff>
      </note>
      <note>
        <chord/>
        <pitch>
          <step>A</step>
          <octave>3</octave>
        </pitch>
        <duration>64</duration>
        <voice>3</voice>
        <type>quarter</type>
        <staff>2</staff>
      </note>
    </measure>
    <measure number="3">
      <attributes/>
      <note>
        <rest/>
        <duration>64</duration>
        <voice>1</voice>
        <type>quarter</type>
        <staff>1</staff>
      </note>
      <note>
        <pitch>
          <step>F</step>
          <octave>4</octave>
        </pitch>
        <duration>64</duration>
        <voice>1</voice>
        <type>quarter</type>
        <staff>1</staff>
      </note>
      <note>
        <rest/>
        <duration>64</duration>
        <voice>1</voice>
        <type>quarter</type>
        <staff>1</staff>
      </note>
      <note>
        <pitch>
          <step>E</step>
          <octave>4</octave>
        </pitch>
        <duration>64</duration>
        <voice>1</voice>
        <type>quarter</type>
        <staff>1</staff>
      </note>
      <backup>
        <duration>256</duration>
      </backup>
      <attributes/>
      <note>
        <rest/>
        <duration>64</duration>
        <voice>3</voice>
        <type>quarter</type>
        <staff>2</staff>
      </note>
      <note>
        <pitch>
          <step>F</step>
          <octave>3</octave>
        </pitch>
        <duration>64</duration>
        <voice>3</voice>
        <type>quarter</type>
        <staff>2</staff>
      </note>
      <note>
        <chord/>
        <pitch>
          <step>A</step>
          <octave>3</octave>
        </pitch>
        <duration>64</duration>
        <voice>3</voice>
        <type>quarter</type>
        <staff>2</staff>
      </note>
      <note>
        <rest/>
        <duration>64</duration>
        <voice>3</voice>
        <type>quarter</type>
        <staff>2</staff>
      </note>
      <note>
        <pitch>
          <step>G</step>
          <octave>3</octave>
        </pitch>
        <duration>64</duration>
        <voice>3</voice>
        <type>quarter</type>
        <staff>2</staff>
      </note>
      <note>
        <chord/>
        <pitch>
          <step>B</step>
          <alter>-1</alter>
          <octave>3</octave>
        </pitch>
        <duration>64</duration>
        <voice>3</voice>
        <type>quarter</type>
        <accidental>flat</accidental>
        <staff>2</staff>
      </note>
    </measure>
    <measure number="4">
      <attributes/>
      <note>
        <rest/>
        <duration>64</duration>
        <voice>1</voice>
        <type>quarter</type>
        <staff>1</staff>
      </note>
      <note>
        <pitch>
          <step>F</step>
          <octave>4</octave>
        </pitch>
        <duration>64</duration>
        <voice>1</voice>
        <type>quarter</type>
        <staff>1</staff>
      </note>
      <note>
        <rest/>
        <duration>64</duration>
        <voice>1</voice>
        <type>quarter</type>
        <staff>1</staff>
      </note>
      <note>
        <pitch>
          <step>F</step>
          <octave>4</octave>
        </pitch>
        <duration>64</duration>
        <voice>1</voice>
        <type>quarter</type>
        <staff>1</staff>
      </note>
      <backup>
        <duration>256</duration>
      </backup>
      <attributes/>
      <note>
        <rest/>
        <duration>64</duration>
        <voice>3</voice>
        <type>quarter</type>
        <staff>2</staff>
      </note>
      <note>
        <pitch>
          <step>F</step>
          <octave>3</octave>
        </pitch>
        <duration>64</duration>
        <voice>3</voice>
        <type>quarter</type>
        <staff>2</staff>
      </note>
      <note>
        <chord/>
        <pitch>
          <step>A</step>
          <octave>3</octave>
        </pitch>
        <duration>64</duration>
        <voice>3</voice>
        <type>quarter</type>
        <staff>2</staff>
      </note>
      <note>
        <rest/>
        <duration>64</duration>
        <voice>3</voice>
        <type>quarter</type>
        <staff>2</staff>
      </note>
      <note>
        <pitch>
          <step>F</step>
          <octave>3</octave>
        </pitch>
        <duration>64</duration>
        <voice>3</voice>
        <type>quarter</type>
        <staff>2</staff>
      </note>
      <note>
        <chord/>
        <pitch>
          <step>A</step>
          <octave>3</octave>
        </pitch>
        <duration>64</duration>
        <voice>3</voice>
        <type>quarter</type>
        <staff>2</staff>
      </note>
    </measure>
    <measure number="5">
      <attributes/>
      <note>
        <rest/>
        <duration>64</duration>
        <voice>1</voice>
        <type>quarter</type>
        <staff>1</staff>
      </note>
      <note>
        <pitch>
          <step>F</step>
          <octave>4</octave>
        </pitch>
        <duration>64</duration>
        <voice>1</voice>
        <type>quarter</type>
        <staff>1</staff>
      </note>
      <note>
        <rest/>
        <duration>64</duration>
        <voice>1</voice>
        <type>quarter</type>
        <staff>1</staff>
      </note>
      <note>
        <pitch>
          <step>F</step>
          <octave>4</octave>
        </pitch>
        <duration>64</duration>
        <voice>1</voice>
        <type>quarter</type>
        <staff>1</staff>
      </note>
      <backup>
        <duration>256</duration>
      </backup>
      <attributes/>
      <note>
        <rest/>
        <duration>64</duration>
        <voice>3</voice>
        <type>quarter</type>
        <staff>2</staff>
      </note>
      <note>
        <pitch>
          <step>F</step>
          <octave>3</octave>
        </pitch>
        <duration>64</duration>
        <voice>3</voice>
        <type>quarter</type>
        <staff>2</staff>
      </note>
      <note>
        <chord/>
        <pitch>
          <step>A</step>
          <octave>3</octave>
        </pitch>
        <duration>64</duration>
        <voice>3</voice>
        <type>quarter</type>
        <staff>2</staff>
      </note>
      <note>
        <rest/>
        <duration>64</duration>
        <voice>3</voice>
        <type>quarter</type>
        <staff>2</staff>
      </note>
      <note>
        <pitch>
          <step>F</step>
          <octave>3</octave>
        </pitch>
        <duration>64</duration>
        <voice>3</voice>
        <type>quarter</type>
        <staff>2</staff>
      </note>
      <note>
        <chord/>
        <pitch>
          <step>A</step>
          <octave>3</octave>
        </pitch>
        <duration>64</duration>
        <voice>3</voice>
        <type>quarter</type>
        <staff>2</staff>
      </note>
    </measure>
    <measure number="6">
      <attributes/>
      <note>
        <rest/>
        <duration>64</duration>
        <voice>1</voice>
        <type>quarter</type>
        <staff>1</staff>
      </note>
      <note>
        <pitch>
          <step>F</step>
          <octave>4</octave>
        </pitch>
        <duration>64</duration>
        <voice>1</voice>
        <type>quarter</type>
        <staff>1</staff>
      </note>
      <note>
        <rest/>
        <duration>64</duration>
        <voice>1</voice>
        <type>quarter</type>
        <staff>1</staff>
      </note>
      <note>
        <pitch>
          <step>F</step>
          <octave>4</octave>
        </pitch>
        <duration>64</duration>
        <voice>1</voice>
        <type>quarter</type>
        <staff>1</staff>
      </note>
      <backup>
        <duration>256</duration>
      </backup>
      <attributes/>
      <note>
        <rest/>
        <duration>64</duration>
        <voice>3</voice>
        <type>quarter</type>
        <staff>2</staff>
      </note>
      <note>
        <pitch>
          <step>F</step>
          <octave>3</octave>
        </pitch>
        <duration>64</duration>
        <voice>3</voice>
        <type>quarter</type>
        <staff>2</staff>
      </note>
      <note>
        <chord/>
        <pitch>
          <step>A</step>
          <octave>3</octave>
        </pitch>
        <duration>64</duration>
        <voice>3</voice>
        <type>quarter</type>
        <staff>2</staff>
      </note>
      <note>
        <rest/>
        <duration>64</duration>
        <voice>3</voice>
        <type>quarter</type>
        <staff>2</staff>
      </note>
      <note>
        <pitch>
          <step>F</step>
          <octave>3</octave>
        </pitch>
        <duration>64</duration>
        <voice>3</voice>
        <type>quarter</type>
        <staff>2</staff>
      </note>
      <note>
        <chord/>
        <pitch>
          <step>A</step>
          <octave>3</octave>
        </pitch>
        <duration>64</duration>
        <voice>3</voice>
        <type>quarter</type>
        <staff>2</staff>
      </note>
    </measure>
    <measure number="7">
      <attributes/>
      <note>
        <rest/>
        <duration>64</duration>
        <voice>1</voice>
        <type>quarter</type>
        <staff>1</staff>
      </note>
      <note>
        <pitch>
          <step>F</step>
          <octave>4</octave>
        </pitch>
        <duration>64</duration>
        <voice>1</voice>
        <type>quarter</type>
        <staff>1</staff>
      </note>
      <note>
        <rest/>
        <duration>64</duration>
        <voice>1</voice>
        <type>quarter</type>
        <staff>1</staff>
      </note>
      <note>
        <pitch>
          <step>E</step>
          <octave>4</octave>
        </pitch>
        <duration>64</duration>
        <voice>1</voice>
        <type>quarter</type>
        <staff>1</staff>
      </note>
      <backup>
        <duration>256</duration>
      </backup>
      <attributes/>
      <note>
        <rest/>
        <duration>64</duration>
        <voice>3</voice>
        <type>quarter</type>
        <staff>2</staff>
      </note>
      <note>
        <pitch>
          <step>F</step>
          <octave>3</octave>
        </pitch>
        <duration>64</duration>
        <voice>3</voice>
        <type>quarter</type>
        <staff>2</staff>
      </note>
      <note>
        <chord/>
        <pitch>
          <step>A</step>
          <octave>3</octave>
        </pitch>
        <duration>64</duration>
        <voice>3</voice>
        <type>quarter</type>
        <staff>2</staff>
      </note>
      <note>
        <rest/>
        <duration>64</duration>
        <voice>3</voice>
        <type>quarter</type>
        <staff>2</staff>
      </note>
      <note>
        <pitch>
          <step>G</step>
          <octave>3</octave>
        </pitch>
        <duration>64</duration>
        <voice>3</voice>
        <type>quarter</type>
        <staff>2</staff>
      </note>
      <note>
        <chord/>
        <pitch>
          <step>B</step>
          <alter>-1</alter>
          <octave>3</octave>
        </pitch>
        <duration>64</duration>
        <voice>3</voice>
        <type>quarter</type>
        <accidental>flat</accidental>
        <staff>2</staff>
      </note>
    </measure>
    <measure number="8">
      <attributes/>
      <note>
        <pitch>
          <step>F</step>
          <octave>4</octave>
        </pitch>
        <duration>128</duration>
        <voice>1</voice>
        <type>half</type>
        <staff>1</staff>
      </note>
      <note>
        <rest/>
        <duration>128</duration>
        <voice>1</voice>
        <type>half</type>
        <staff>1</staff>
      </note>
      <backup>
        <duration>256</duration>
      </backup>
      <attributes/>
      <note>
        <rest/>
        <duration>64</duration>
        <voice>3</voice>
        <type>quarter</type>
        <staff>2</staff>
      </note>
      <note>
        <rest/>
        <duration>64</duration>
        <voice>3</voice>
        <type>quarter</type>
        <staff>2</staff>
      </note>
      <note>
        <rest/>
        <duration>64</duration>
        <voice>3</voice>
        <type>quarter</type>
        <staff>2</staff>
      </note>
      <note>
        <rest/>
        <duration>64</duration>
        <voice>3</voice>
        <type>quarter</type>
        <staff>2</staff>
      </note>
      <barline location="right">
        <bar-style>light-heavy</bar-style>
        <repeat direction="backward"/>
      </barline>
    </measure>
  </part>
  <part id="P3">
    <measure number="1">
      <attributes>
        <divisions>64</divisions>
        <key>
          <fifths>0</fifths>
          <mode>major</mode>
        </key>
        <time>
          <beats>4</beats>
          <beat-type>4</beat-type>
        </time>
        <clef number="1">
          <sign>F</sign>
          <line>4</line>
        </clef>
        <transpose>
          <chromatic>0</chromatic>
          <octave-change>-1</octave-change>
        </transpose>
      </attributes>
      <direction placement="above">
        <direction-type>
          <metronome>
            <beat-unit>quarter</beat-unit>
            <per-minute>177</per-minute>
          </metronome>
        </direction-type>
        <sound tempo="177"/>
      </direction>
      <note>
        <pitch>
          <step>F</step>
          <octave>3</octave>
        </pitch>
        <duration>128</duration>
        <voice>1</voice>
        <type>half</type>
      </note>
      <note>
        <pitch>
          <step>C</step>
          <octave>3</octave>
        </pitch>
        <duration>128</duration>
        <voice>1</voice>
        <type>half</type>
      </note>
    </measure>
    <measure number="2">
      <attributes/>
      <note>
        <pitch>
          <step>F</step>
          <octave>3</octave>
        </pitch>
        <duration>128</duration>
        <voice>1</voice>
        <type>half</type>
      </note>
      <note>
        <pitch>
          <step>C</step>
          <octave>3</octave>
        </pitch>
        <duration>128</duration>
        <voice>1</voice>
        <type>half</type>
      </note>
    </measure>
    <measure number="3">
      <attributes/>
      <note>
        <pitch>
          <step>F</step>
          <octave>3</octave>
        </pitch>
        <duration>128</duration>
        <voice>1</voice>
        <type>half</type>
      </note>
      <note>
        <pitch>
          <step>C</step>
          <octave>3</octave>
        </pitch>
        <duration>128</duration>
        <voice>1</voice>
        <type>half</type>
      </note>
    </measure>
    <measure number="4">
      <attributes/>
      <note>
        <pitch>
          <step>F</step>
          <octave>3</octave>
        </pitch>
        <duration>128</duration>
        <voice>1</voice>
        <type>half</type>
      </note>
      <note>
        <pitch>
          <step>C</step>
          <octave>3</octave>
        </pitch>
        <duration>128</duration>
        <voice>1</voice>
        <type>half</type>
      </note>
    </measure>
    <measure number="5">
      <attributes/>
      <note>
        <pitch>
          <step>F</step>
          <octave>3</octave>
        </pitch>
        <duration>128</duration>
        <voice>1</voice>
        <type>half</type>
      </note>
      <note>
        <pitch>
          <step>C</step>
          <octave>3</octave>
        </pitch>
        <duration>128</duration>
        <voice>1</voice>
        <type>half</type>
      </note>
    </measure>
    <measure number="6">
      <attributes/>
      <note>
        <pitch>
          <step>F</step>
          <octave>3</octave>
        </pitch>
        <duration>128</duration>
        <voice>1</voice>
        <type>half</type>
      </note>
      <note>
        <pitch>
          <step>C</step>
          <octave>3</octave>
        </pitch>
        <duration>128</duration>
        <voice>1</voice>
        <type>half</type>
      </note>
    </measure>
    <measure number="7">
      <attributes/>
      <note>
        <pitch>
          <step>F</step>
          <octave>3</octave>
        </pitch>
        <duration>128</duration>
        <voice>1</voice>
        <type>half</type>
      </note>
      <note>
        <pitch>
          <step>C</step>
          <octave>3</octave>
        </pitch>
        <duration>128</duration>
        <voice>1</voice>
        <type>half</type>
      </note>
    </measure>
    <measure number="8">
      <attributes/>
      <note>
        <pitch>
          <step>F</step>
          <octave>3</octave>
        </pitch>
        <duration>128</duration>
        <voice>1</voice>
        <type>half</type>
      </note>
      <note>
        <rest/>
        <duration>128</duration>
        <voice>1</voice>
        <type>half</type>
      </note>
      <barline location="right">
        <bar-style>light-heavy</bar-style>
        <repeat direction="backward"/>
      </barline>
    </measure>
  </part>
  <part id="P4">
    <measure number="1">
      <attributes>
        <divisions>64</divisions>
        <time>
          <beats>4</beats>
          <beat-type>4</beat-type>
        </time>
        <clef number="1">
          <sign>percussion</sign>
        </clef>
      </attributes>
      <direction placement="above">
        <direction-type>
          <metronome>
            <beat-unit>quarter</beat-unit>
            <per-minute>177</per-minute>
          </metronome>
        </direction-type>
        <sound tempo="177"/>
      </direction>
      <note>
        <unpitched>
          <display-step>G</display-step>
          <display-octave>4</display-octave>
        </unpitched>
        <duration>64</duration>
        <voice>1</voice>
        <type>quarter</type>
      </note>
      <note>
        <chord/>
        <unpitched>
          <display-step>E</display-step>
          <display-octave>5</display-octave>
        </unpitched>
        <duration>64</duration>
        <voice>1</voice>
        <type>quarter</type>
        <notehead>x</notehead>
      </note>
      <note>
        <unpitched>
          <display-step>C</display-step>
          <display-octave>5</display-octave>
        </unpitched>
        <duration>64</duration>
        <voice>1</voice>
        <type>quarter</type>
      </note>
      <note>
        <chord/>
        <unpitched>
          <display-step>E</display-step>
          <display-octave>5</display-octave>
        </unpitched>
        <duration>64</duration>
        <voice>1</voice>
        <type>quarter</type>
        <notehead>x</notehead>
      </note>
      <note>
        <unpitched>
          <display-step>G</display-step>
          <display-octave>4</display-octave>
        </unpitched>
        <duration>64</duration>
        <voice>1</voice>
        <type>quarter</type>
      </note>
      <note>
        <chord/>
        <unpitched>
          <display-step>E</display-step>
          <display-octave>5</display-octave>
        </unpitched>
        <duration>64</duration>
        <voice>1</voice>
        <type>quarter</type>
        <notehead>x</notehead>
      </note>
      <note>
        <unpitched>
          <display-step>C</display-step>
          <display-octave>5</display-octave>
        </unpitched>
        <duration>64</duration>
        <voice>1</voice>
        <type>quarter</type>
      </note>
      <note>
        <chord/>
        <unpitched>
          <display-step>E</display-step>
          <display-octave>5</display-octave>
        </unpitched>
        <duration>64</duration>
        <voice>1</voice>
        <type>quarter</type>
        <notehead>x</notehead>
      </note>
    </measure>
    <measure number="2">
      <attributes/>
      <note>
        <unpitched>
          <display-step>G</display-step>
          <display-octave>4</display-octave>
        </unpitched>
        <duration>64</duration>
        <voice>1</voice>
        <type>quarter</type>
      </note>
      <note>
        <chord/>
        <unpitched>
          <display-step>E</display-step>
          <display-octave>5</display-octave>
        </unpitched>
        <duration>64</duration>
        <voice>1</voice>
        <type>quarter</type>
        <notehead>x</notehead>
      </note>
      <note>
        <unpitched>
          <display-step>C</display-step>
          <display-octave>5</display-octave>
        </unpitched>
        <duration>64</duration>
        <voice>1</voice>
        <type>quarter</type>
      </note>
      <note>
        <chord/>
        <unpitched>
          <display-step>E</display-step>
          <display-octave>5</display-octave>
        </unpitched>
        <duration>64</duration>
        <voice>1</voice>
        <type>quarter</type>
        <notehead>x</notehead>
      </note>
      <note>
        <unpitched>
          <display-step>G</display-step>
          <display-octave>4</display-octave>
        </unpitched>
        <duration>64</duration>
        <voice>1</voice>
        <type>quarter</type>
      </note>
      <note>
        <chord/>
        <unpitched>
          <display-step>E</display-step>
          <display-octave>5</display-octave>
        </unpitched>
        <duration>64</duration>
        <voice>1</voice>
        <type>quarter</type>
        <notehead>x</notehead>
      </note>
      <note>
        <unpitched>
          <display-step>C</display-step>
          <display-octave>5</display-octave>
        </unpitched>
        <duration>64</duration>
        <voice>1</voice>
        <type>quarter</type>
      </note>
      <note>
        <chord/>
        <unpitched>
          <display-step>E</display-step>
          <display-octave>5</display-octave>
        </unpitched>
        <duration>64</duration>
        <voice>1</voice>
        <type>quarter</type>
        <notehead>x</notehead>
      </note>
    </measure>
    <measure number="3">
      <attributes/>
      <note>
        <unpitched>
          <display-step>G</display-step>
          <display-octave>4</display-octave>
        </unpitched>
        <duration>64</duration>
        <voice>1</voice>
        <type>quarter</type>
      </note>
      <note>
        <chord/>
        <unpitched>
          <display-step>E</display-step>
          <display-octave>5</display-octave>
        </unpitched>
        <duration>64</duration>
        <voice>1</voice>
        <type>quarter</type>
        <notehead>x</notehead>
      </note>
      <note>
        <unpitched>
          <display-step>C</display-step>
          <display-octave>5</display-octave>
        </unpitched>
        <duration>64</duration>
        <voice>1</voice>
        <type>quarter</type>
      </note>
      <note>
        <chord/>
        <unpitched>
          <display-step>E</display-step>
          <display-octave>5</display-octave>
        </unpitched>
        <duration>64</duration>
        <voice>1</voice>
        <type>quarter</type>
        <notehead>x</notehead>
      </note>
      <note>
        <unpitched>
          <display-step>G</display-step>
          <display-octave>4</display-octave>
        </unpitched>
        <duration>64</duration>
        <voice>1</voice>
        <type>quarter</type>
      </note>
      <note>
        <chord/>
        <unpitched>
          <display-step>E</display-step>
          <display-octave>5</display-octave>
        </unpitched>
        <duration>64</duration>
        <voice>1</voice>
        <type>quarter</type>
        <notehead>x</notehead>
      </note>
      <note>
        <unpitched>
          <display-step>C</display-step>
          <display-octave>5</display-octave>
        </unpitched>
        <duration>64</duration>
        <voice>1</voice>
        <type>quarter</type>
      </note>
      <note>
        <chord/>
        <unpitched>
          <display-step>E</display-step>
          <display-octave>5</display-octave>
        </unpitched>
        <duration>64</duration>
        <voice>1</voice>
        <type>quarter</type>
        <notehead>x</notehead>
      </note>
    </measure>
    <measure number="4">
      <attributes/>
      <note>
        <unpitched>
          <display-step>G</display-step>
          <display-octave>4</display-octave>
        </unpitched>
        <duration>64</duration>
        <voice>1</voice>
        <type>quarter</type>
      </note>
      <note>
        <chord/>
        <unpitched>
          <display-step>E</display-step>
          <display-octave>5</display-octave>
        </unpitched>
        <duration>64</duration>
        <voice>1</voice>
        <type>quarter</type>
        <notehead>x</notehead>
      </note>
      <note>
        <unpitched>
          <display-step>C</display-step>
          <display-octave>5</display-octave>
        </unpitched>
        <duration>64</duration>
        <voice>1</voice>
        <type>quarter</type>
      </note>
      <note>
        <chord/>
        <unpitched>
          <display-step>E</display-step>
          <display-octave>5</display-octave>
        </unpitched>
        <duration>64</duration>
        <voice>1</voice>
        <type>quarter</type>
        <notehead>x</notehead>
      </note>
      <note>
        <unpitched>
          <display-step>G</display-step>
          <display-octave>4</display-octave>
        </unpitched>
        <duration>64</duration>
        <voice>1</voice>
        <type>quarter</type>
      </note>
      <note>
        <chord/>
        <unpitched>
          <display-step>E</display-step>
          <display-octave>5</display-octave>
        </unpitched>
        <duration>64</duration>
        <voice>1</voice>
        <type>quarter</type>
        <notehead>x</notehead>
      </note>
      <note>
        <unpitched>
          <display-step>C</display-step>
          <display-octave>5</display-octave>
        </unpitched>
        <duration>64</duration>
        <voice>1</voice>
        <type>quarter</type>
      </note>
      <note>
        <chord/>
        <unpitched>
          <display-step>E</display-step>
          <display-octave>5</display-octave>
        </unpitched>
        <duration>64</duration>
        <voice>1</voice>
        <type>quarter</type>
        <notehead>x</notehead>
      </note>
    </measure>
    <measure number="5">
      <attributes/>
      <note>
        <unpitched>
          <display-step>G</display-step>
          <display-octave>4</display-octave>
        </unpitched>
        <duration>64</duration>
        <voice>1</voice>
        <type>quarter</type>
      </note>
      <note>
        <chord/>
        <unpitched>
          <display-step>E</display-step>
          <display-octave>5</display-octave>
        </unpitched>
        <duration>64</duration>
        <voice>1</voice>
        <type>quarter</type>
        <notehead>x</notehead>
      </note>
      <note>
        <unpitched>
          <display-step>C</display-step>
          <display-octave>5</display-octave>
        </unpitched>
        <duration>64</duration>
        <voice>1</voice>
        <type>quarter</type>
      </note>
      <note>
        <chord/>
        <unpitched>
          <display-step>E</display-step>
          <display-octave>5</display-octave>
        </unpitched>
        <duration>64</duration>
        <voice>1</voice>
        <type>quarter</type>
        <notehead>x</notehead>
      </note>
      <note>
        <unpitched>
          <display-step>G</display-step>
          <display-octave>4</display-octave>
        </unpitched>
        <duration>64</duration>
        <voice>1</voice>
        <type>quarter</type>
      </note>
      <note>
        <chord/>
        <unpitched>
          <display-step>E</display-step>
          <display-octave>5</display-octave>
        </unpitched>
        <duration>64</duration>
        <voice>1</voice>
        <type>quarter</type>
        <notehead>x</notehead>
      </note>
      <note>
        <unpitched>
          <display-step>C</display-step>
          <display-octave>5</display-octave>
        </unpitched>
        <duration>64</duration>
        <voice>1</voice>
        <type>quarter</type>
      </note>
      <note>
        <chord/>
        <unpitched>
          <display-step>E</display-step>
          <display-octave>5</display-octave>
        </unpitched>
        <duration>64</duration>
        <voice>1</voice>
        <type>quarter</type>
        <notehead>x</notehead>
      </note>
    </measure>
    <measure number="6">
      <attributes/>
      <note>
        <unpitched>
          <display-step>G</display-step>
          <display-octave>4</display-octave>
        </unpitched>
        <duration>64</duration>
        <voice>1</voice>
        <type>quarter</type>
      </note>
      <note>
        <chord/>
        <unpitched>
          <display-step>E</display-step>
          <display-octave>5</display-octave>
        </unpitched>
        <duration>64</duration>
        <voice>1</voice>
        <type>quarter</type>
        <notehead>x</notehead>
      </note>
      <note>
        <unpitched>
          <display-step>C</display-step>
          <display-octave>5</display-octave>
        </unpitched>
        <duration>64</duration>
        <voice>1</voice>
        <type>quarter</type>
      </note>
      <note>
        <chord/>
        <unpitched>
          <display-step>E</display-step>
          <display-octave>5</display-octave>
        </unpitched>
        <duration>64</duration>
        <voice>1</voice>
        <type>quarter</type>
        <notehead>x</notehead>
      </note>
      <note>
        <unpitched>
          <display-step>G</display-step>
          <display-octave>4</display-octave>
        </unpitched>
        <duration>64</duration>
        <voice>1</voice>
        <type>quarter</type>
      </note>
      <note>
        <chord/>
        <unpitched>
          <display-step>E</display-step>
          <display-octave>5</display-octave>
        </unpitched>
        <duration>64</duration>
        <voice>1</voice>
        <type>quarter</type>
        <notehead>x</notehead>
      </note>
      <note>
        <unpitched>
          <display-step>C</display-step>
          <display-octave>5</display-octave>
        </unpitched>
        <duration>64</duration>
        <voice>1</voice>
        <type>quarter</type>
      </note>
      <note>
        <chord/>
        <unpitched>
          <display-step>E</display-step>
          <display-octave>5</display-octave>
        </unpitched>
        <duration>64</duration>
        <voice>1</voice>
        <type>quarter</type>
        <notehead>x</notehead>
      </note>
    </measure>
    <measure number="7">
      <attributes/>
      <note>
        <unpitched>
          <display-step>G</display-step>
          <display-octave>4</display-octave>
        </unpitched>
        <duration>64</duration>
        <voice>1</voice>
        <type>quarter</type>
      </note>
      <note>
        <chord/>
        <unpitched>
          <display-step>E</display-step>
          <display-octave>5</display-octave>
        </unpitched>
        <duration>64</duration>
        <voice>1</voice>
        <type>quarter</type>
        <notehead>x</notehead>
      </note>
      <note>
        <unpitched>
          <display-step>C</display-step>
          <display-octave>5</display-octave>
        </unpitched>
        <duration>64</duration>
        <voice>1</voice>
        <type>quarter</type>
      </note>
      <note>
        <chord/>
        <unpitched>
          <display-step>E</display-step>
          <display-octave>5</display-octave>
        </unpitched>
        <duration>64</duration>
        <voice>1</voice>
        <type>quarter</type>
        <notehead>x</notehead>
      </note>
      <note>
        <unpitched>
          <display-step>G</display-step>
          <display-octave>4</display-octave>
        </unpitched>
        <duration>64</duration>
        <voice>1</voice>
        <type>quarter</type>
      </note>
      <note>
        <chord/>
        <unpitched>
          <display-step>E</display-step>
          <display-octave>5</display-octave>
        </unpitched>
        <duration>64</duration>
        <voice>1</voice>
        <type>quarter</type>
        <notehead>x</notehead>
      </note>
      <note>
        <unpitched>
          <display-step>C</display-step>
          <display-octave>5</display-octave>
        </unpitched>
        <duration>64</duration>
        <voice>1</voice>
        <type>quarter</type>
      </note>
      <note>
        <chord/>
        <unpitched>
          <display-step>E</display-step>
          <display-octave>5</display-octave>
        </unpitched>
        <duration>64</duration>
        <voice>1</voice>
        <type>quarter</type>
        <notehead>x</notehead>
      </note>
    </measure>
    <measure number="8">
      <attributes/>
      <note>
        <unpitched>
          <display-step>G</display-step>
          <display-octave>4</display-octave>
        </unpitched>
        <duration>64</duration>
        <voice>1</voice>
        <type>quarter</type>
      </note>
      <note>
        <chord/>
        <unpitched>
          <display-step>E</display-step>
          <display-octave>5</display-octave>
        </unpitched>
        <duration>64</duration>
        <voice>1</voice>
        <type>quarter</type>
        <notehead>x</notehead>
      </note>
      <note>
        <rest/>
        <duration>64</duration>
        <voice>1</voice>
        <type>quarter</type>
      </note>
      <note>
        <rest/>
        <duration>64</duration>
        <voice>1</voice>
        <type>quarter</type>
      </note>
      <note>
        <rest/>
        <duration>64</duration>
        <voice>1</voice>
        <type>quarter</type>
      </note>
      <barline location="right">
        <bar-style>light-heavy</bar-style>
        <repeat direction="backward"/>
      </barline>
    </measure>
  </part>
</score-partwise>