<?xml version="1.0" encoding="UTF-8"?>
<!DOCTYPE score-partwise PUBLIC "-//Recordare//DTD MusicXML 2.0 Partwise//EN"
  "http://www.musicxml.org/dtds/partwise.dtd">
<score-partwise version="2.0">
  <work>
    <work-title>Tom Dooley - Band</work-title>
  </work>
  <identification>
    <creator type="composer"/>
    <creator type="lyricist"/>
    <rights/>
    <encoding>
      <software>Noteflight version 0.3.2</software>
      <encoding-date>2013-04-17</encoding-date>
      <supports attribute="new-system" element="print" type="no" value="no"/>
      <supports attribute="new-page" element="print" type="no" value="no"/>
    </encoding>
  </identification>
  <defaults>
    <scaling>
      <millimeters>1.76388889</millimeters>
      <tenths>10</tenths>
    </scaling>
    <page-layout>
      <page-height>1584</page-height>
      <page-width>1224</page-width>
      <page-margins type="both">
        <left-margin>71.5</left-margin>
        <right-margin>68</right-margin>
        <top-margin>116</top-margin>
        <bottom-margin>96</bottom-margin>
      </page-margins>
    </page-layout>
    <system-layout>
      <system-margins>
        <left-margin>71.5</left-margin>
        <right-margin>32</right-margin>
      </system-margins>
      <system-distance>92.5</system-distance>
      <top-system-distance>156.5</top-system-distance>
    </system-layout>
    <staff-layout>
      <staff-distance>55</staff-distance>
    </staff-layout>
  </defaults>
  <credit page="1">
    <credit-words font-size="24" default-x="612" default-y="1524" justify="center" valign="top">Tom Dooley - Band</credit-words>
  </credit>
  <part-list>
    <score-part id="P1">
      <part-name>Piano</part-name>
      <part-abbreviation>Pno</part-abbreviation>
      <score-instrument id="P1I1">
        <instrument-name>Piano</instrument-name>
      </score-instrument>
      <midi-instrument id="P1I1">
        <midi-channel>1</midi-channel>
        <midi-program>1</midi-program>
      </midi-instrument>
    </score-part>
    <score-part id="P2">
      <part-name>Acoustic Guitar</part-name>
      <part-abbreviation>G</part-abbreviation>
      <score-instrument id="P2I1">
        <instrument-name>Acoustic Guitar</instrument-name>
      </score-instrument>
      <midi-instrument id="P2I1">
        <midi-channel>2</midi-channel>
        <midi-program>27</midi-program>
      </midi-instrument>
    </score-part>
    <score-part id="P3">
      <part-name>Rock Electric Bass</part-name>
      <part-abbreviation>E Bass</part-abbreviation>
      <score-instrument id="P3I1">
        <instrument-name>Rock Electric Bass</instrument-name>
      </score-instrument>
      <midi-instrument id="P3I1">
        <midi-channel>3</midi-channel>
        <midi-program>1</midi-program>
      </midi-instrument>
    </score-part>
    <score-part id="P4">
      <part-name>Basic Drums</part-name>
      <part-abbreviation>Dr</part-abbreviation>
      <score-instrument id="P4I1">
        <instrument-name>Basic Drums</instrument-name>
      </score-instrument>
      <midi-instrument id="P4I1">
        <midi-channel>10</midi-channel>
        <midi-program>1</midi-program>
      </midi-instrument>
    </score-part>
  </part-list>
  <part id="P1">
    <measure number="1">
      <attributes>
        <divisions>64</divisions>
        <key>
          <fifths>0</fifths>
          <mode>major</mode>
        </key>
        <time>
          <beats>4</beats>
          <beat-type>4</beat-type>
        </time>
        <clef number="1">
          <sign>G</sign>
          <line>2</line>
        </clef>
      </attributes>
      <direction placement="above">
        <direction-type>
          <metronome>
            <beat-unit>quarter</beat-unit>
            <per-minute>120</per-minute>
          </metronome>
        </direction-type>
        <sound tempo="120"/>
      </direction>
      <harmony>
        <root>
          <root-step>F</root-step>
        </root>
        <kind>major</kind>
      </harmony>
      <harmony>
        <root>
          <root-step>F</root-step>
        </root>
        <kind>major</kind>
      </harmony>
      <harmony>
        <root>
          <root-step>F</root-step>
        </root>
        <kind>major</kind>
      </harmony>
      <note>
        <pitch>
          <step>C</step>
          <octave>4</octave>
        </pitch>
        <duration>64</duration>
        <voice>1</voice>
        <type>quarter</type>
        <lyric number="1" color="#000000">
          <syllabic>single</syllabic>
          <text>Hang</text>
        </lyric>
      </note>
      <note>
        <pitch>
          <step>C</step>
          <octave>4</octave>
        </pitch>
        <duration>64</duration>
        <voice>1</voice>
        <type>quarter</type>
        <lyric number="1" color="#000000">
          <syllabic>single</syllabic>
          <text>down</text>
        </lyric>
      </note>
      <note>
        <pitch>
          <step>D</step>
          <octave>4</octave>
        </pitch>
        <duration>64</duration>
        <voice>1</voice>
        <type>quarter</type>
        <lyric number="1" color="#000000">
          <syllabic>single</syllabic>
          <text>head</text>
        </lyric>
      </note>
      <note>
        <pitch>
          <step>F</step>
          <octave>4</octave>
        </pitch>
        <duration>64</duration>
        <voice>1</voice>
        <type>quarter</type>
        <lyric number="1" color="#000000">
          <syllabic>single</syllabic>
          <text>Tom</text>
        </lyric>
      </note>
    </measure>
    <measure number="2">
      <attributes/>
      <harmony>
        <root>
          <root-step>F</root-step>
        </root>
        <kind>major</kind>
      </harmony>
      <harmony>
        <root>
          <root-step>F</root-step>
        </root>
        <kind>major</kind>
      </harmony>
      <harmony>
        <root>
          <root-step>F</root-step>
        </root>
        <kind>major</kind>
      </harmony>
      <note>
        <pitch>
          <step>A</step>
          <octave>4</octave>
        </pitch>
        <duration>64</duration>
        <voice>1</voice>
        <type>quarter</type>
        <lyric number="1" color="#000000">
          <syllabic>begin</syllabic>
          <text>Doo</text>
        </lyric>
      </note>
      <note>
        <pitch>
          <step>A</step>
          <octave>4</octave>
        </pitch>
        <duration>64</duration>
        <voice>1</voice>
        <type>quarter</type>
        <lyric number="1" color="#000000">
          <syllabic>end</syllabic>
          <text>ley</text>
        </lyric>
      </note>
      <note>
        <rest/>
        <duration>64</duration>
        <voice>1</voice>
        <type>quarter</type>
      </note>
      <note>
        <rest/>
        <duration>64</duration>
        <voice>1</voice>
        <type>quarter</type>
      </note>
    </measure>
    <measure number="3">
      <attributes/>
      <harmony>
        <root>
          <root-step>F</root-step>
        </root>
        <kind>major</kind>
      </harmony>
      <note>
        <pitch>
          <step>C</step>
          <octave>4</octave>
        </pitch>
        <duration>64</duration>
        <voice>1</voice>
        <type>quarter</type>
        <lyric number="1" color="#000000">
          <syllabic>begin</syllabic>
          <text>Hang</text>
        </lyric>
      </note>
      <note>
        <pitch>
          <step>C</step>
          <octave>4</octave>
        </pitch>
        <duration>64</duration>
        <voice>1</voice>
        <type>quarter</type>
        <lyric number="1" color="#000000">
          <syllabic>end</syllabic>
          <text>down</text>
        </lyric>
      </note>
      <note>
        <pitch>
          <step>D</step>
          <octave>4</octave>
        </pitch>
        <duration>64</duration>
        <voice>1</voice>
        <type>quarter</type>
        <lyric number="1" color="#000000">
          <syllabic>single</syllabic>
          <text>head</text>
        </lyric>
      </note>
      <note>
        <pitch>
          <step>F</step>
          <octave>4</octave>
        </pitch>
        <duration>64</duration>
        <voice>1</voice>
        <type>quarter</type>
        <lyric number="1" color="#000000">
          <syllabic>single</syllabic>
          <text>and</text>
        </lyric>
      </note>
    </measure>
    <measure number="4">
      <print new-system="yes"/>
      <attributes/>
      <harmony>
        <root>
          <root-step>C</root-step>
        </root>
        <kind>major</kind>
      </harmony>
      <note>
        <pitch>
          <step>G</step>
          <octave>4</octave>
        </pitch>
        <duration>128</duration>
        <voice>1</voice>
        <type>half</type>
        <lyric number="1" color="#000000">
          <syllabic>single</syllabic>
          <text>cry</text>
        </lyric>
      </note>
      <note>
        <rest/>
        <duration>64</duration>
        <voice>1</voice>
        <type>quarter</type>
      </note>
      <note>
        <rest/>
        <duration>64</duration>
        <voice>1</voice>
        <type>quarter</type>
      </note>
    </measure>
    <measure number="5">
      <attributes/>
      <harmony>
        <root>
          <root-step>C</root-step>
        </root>
        <kind>major</kind>
      </harmony>
      <note>
        <pitch>
          <step>C</step>
          <octave>4</octave>
        </pitch>
        <duration>64</duration>
        <voice>1</voice>
        <type>quarter</type>
        <lyric number="1" color="#000000">
          <syllabic>single</syllabic>
          <text>Hang</text>
        </lyric>
      </note>
      <note>
        <pitch>
          <step>C</step>
          <octave>4</octave>
        </pitch>
        <duration>64</duration>
        <voice>1</voice>
        <type>quarter</type>
        <lyric number="1" color="#000000">
          <syllabic>single</syllabic>
          <text>down</text>
        </lyric>
      </note>
      <note>
        <pitch>
          <step>D</step>
          <octave>4</octave>
        </pitch>
        <duration>64</duration>
        <voice>1</voice>
        <type>quarter</type>
        <lyric number="1" color="#000000">
          <syllabic>single</syllabic>
          <text>head</text>
        </lyric>
      </note>
      <note>
        <pitch>
          <step>F</step>
          <octave>4</octave>
        </pitch>
        <duration>64</duration>
        <voice>1</voice>
        <type>quarter</type>
        <lyric number="1" color="#000000">
          <syllabic>single</syllabic>
          <text>Tom</text>
        </lyric>
      </note>
    </measure>
    <measure number="6">
      <attributes/>
      <harmony>
        <root>
          <root-step>C</root-step>
        </root>
        <kind>major</kind>
      </harmony>
      <note>
        <pitch>
          <step>G</step>
          <octave>4</octave>
        </pitch>
        <duration>64</duration>
        <voice>1</voice>
        <type>quarter</type>
        <lyric number="1" color="#000000">
          <syllabic>begin</syllabic>
          <text>Doo</text>
        </lyric>
      </note>
      <note>
        <pitch>
          <step>G</step>
          <octave>4</octave>
        </pitch>
        <duration>64</duration>
        <voice>1</voice>
        <type>quarter</type>
        <lyric number="1" color="#000000">
          <syllabic>end</syllabic>
          <text>ley</text>
        </lyric>
      </note>
      <note>
        <rest/>
        <duration>64</duration>
        <voice>1</voice>
        <type>quarter</type>
      </note>
      <note>
        <rest/>
        <duration>64</duration>
        <voice>1</voice>
        <type>quarter</type>
      </note>
    </measure>
    <measure number="7">
      <attributes/>
      <harmony>
        <root>
          <root-step>C</root-step>
        </root>
        <kind>major</kind>
      </harmony>
      <harmony>
        <root>
          <root-step>C</root-step>
        </root>
        <kind>major</kind>
      </harmony>
      <harmony>
        <root>
          <root-step>C</root-step>
        </root>
        <kind>major</kind>
      </harmony>
      <note>
        <pitch>
          <step>G</step>
          <octave>4</octave>
        </pitch>
        <duration>64</duration>
        <voice>1</voice>
        <type>quarter</type>
        <lyric number="1" color="#000000">
          <syllabic>single</syllabic>
          <text>Poor</text>
        </lyric>
      </note>
      <note>
        <pitch>
          <step>A</step>
          <octave>4</octave>
        </pitch>
        <duration>64</duration>
        <voice>1</voice>
        <type>quarter</type>
        <lyric number="1" color="#000000">
          <syllabic>single</syllabic>
          <text>boy</text>
        </lyric>
      </note>
      <note>
        <pitch>
          <step>F</step>
          <octave>4</octave>
        </pitch>
        <duration>64</duration>
        <voice>1</voice>
        <type>quarter</type>
        <lyric number="1" color="#000000">
          <syllabic>begin</syllabic>
          <text>gon</text>
        </lyric>
      </note>
      <note>
        <pitch>
          <step>D</step>
          <octave>4</octave>
        </pitch>
        <duration>64</duration>
        <voice>1</voice>
        <type>quarter</type>
        <lyric number="1" color="#000000">
          <syllabic>end</syllabic>
          <text>na</text>
        </lyric>
      </note>
    </measure>
    <measure number="8">
      <attributes/>
      <harmony>
        <root>
          <root-step>F</root-step>
        </root>
        <kind>major</kind>
      </harmony>
      <harmony>
        <root>
          <root-step>F</root-step>
        </root>
        <kind>major</kind>
      </harmony>
      <harmony>
        <root>
          <root-step>F</root-step>
        </root>
        <kind>major</kind>
      </harmony>
      <note>
        <pitch>
          <step>F</step>
          <octave>4</octave>
        </pitch>
        <duration>128</duration>
        <voice>1</voice>
        <type>half</type>
        <lyric number="1" color="#000000">
          <syllabic>single</syllabic>
          <text>die.</text>
        </lyric>
      </note>
      <note>
        <rest/>
        <duration>128</duration>
        <voice>1</voice>
        <type>half</type>
      </note>
      <barline location="right">
        <bar-style>light-heavy</bar-style>
        <repeat direction="backward"/>
      </barline>
    </measure>
  </part>
  <part id="P2">
    <measure number="1">
      <attributes>
        <divisions>64</divisions>
        <key>
          <fifths>0</fifths>
          <mode>major</mode>
        </key>
        <time>
          <beats>4</beats>
          <beat-type>4</beat-type>
        </time>
        <clef number="1">
          <sign>G</sign>
          <line>2</line>
        </clef>
        <transpose>
          <chromatic>0</chromatic>
          <octave-change>-1</octave-change>
        </transpose>
      </attributes>
      <direction placement="above">
        <direction-type>
          <metronome>
            <beat-unit>quarter</beat-unit>
            <per-minute>120</per-minute>
          </metronome>
        </direction-type>
        <sound tempo="120"/>
      </direction>
      <harmony>
        <root>
          <root-step>F</root-step>
        </root>
        <kind>major</kind>
      </harmony>
      <harmony>
        <root>
          <root-step>F</root-step>
        </root>
        <kind>major</kind>
      </harmony>
      <harmony>
        <root>
          <root-step>F</root-step>
        </root>
        <kind>major</kind>
      </harmony>
      <note>
        <rest/>
        <duration>64</duration>
        <voice>1</voice>
        <type>quarter</type>
      </note>
      <note>
        <pitch>
          <step>F</step>
          <octave>4</octave>
        </pitch>
        <duration>64</duration>
        <voice>1</voice>
        <type>quarter</type>
      </note>
      <note>
        <chord/>
        <pitch>
          <step>A</step>
          <octave>4</octave>
        </pitch>
        <duration>64</duration>
        <voice>1</voice>
        <type>quarter</type>
      </note>
      <note>
        <chord/>
        <pitch>
          <step>C</step>
          <octave>5</octave>
        </pitch>
        <duration>64</duration>
        <voice>1</voice>
        <type>quarter</type>
      </note>
      <note>
        <rest/>
        <duration>64</duration>
        <voice>1</voice>
        <type>quarter</type>
      </note>
      <note>
        <pitch>
          <step>F</step>
          <octave>4</octave>
        </pitch>
        <duration>64</duration>
        <voice>1</voice>
        <type>quarter</type>
      </note>
      <note>
        <chord/>
        <pitch>
          <step>A</step>
          <octave>4</octave>
        </pitch>
        <duration>64</duration>
        <voice>1</voice>
        <type>quarter</type>
      </note>
      <note>
        <chord/>
        <pitch>
          <step>C</step>
          <octave>5</octave>
        </pitch>
        <duration>64</duration>
        <voice>1</voice>
        <type>quarter</type>
      </note>
    </measure>
    <measure number="2">
      <attributes/>
      <harmony>
        <root>
          <root-step>F</root-step>
        </root>
        <kind>major</kind>
      </harmony>
      <harmony>
        <root>
          <root-step>F</root-step>
        </root>
        <kind>major</kind>
      </harmony>
      <harmony>
        <root>
          <root-step>F</root-step>
        </root>
        <kind>major</kind>
      </harmony>
      <note>
        <rest/>
        <duration>64</duration>
        <voice>1</voice>
        <type>quarter</type>
      </note>
      <note>
        <pitch>
          <step>F</step>
          <octave>4</octave>
        </pitch>
        <duration>64</duration>
        <voice>1</voice>
        <type>quarter</type>
      </note>
      <note>
        <chord/>
        <pitch>
          <step>A</step>
          <octave>4</octave>
        </pitch>
        <duration>64</duration>
        <voice>1</voice>
        <type>quarter</type>
      </note>
      <note>
        <chord/>
        <pitch>
          <step>C</step>
          <octave>5</octave>
        </pitch>
        <duration>64</duration>
        <voice>1</voice>
        <type>quarter</type>
      </note>
      <note>
        <rest/>
        <duration>64</duration>
        <voice>1</voice>
        <type>quarter</type>
      </note>
      <note>
        <pitch>
          <step>F</step>
          <octave>4</octave>
        </pitch>
        <duration>64</duration>
        <voice>1</voice>
        <type>quarter</type>
      </note>
      <note>
        <chord/>
        <pitch>
          <step>A</step>
          <octave>4</octave>
        </pitch>
        <duration>64</duration>
        <voice>1</voice>
        <type>quarter</type>
      </note>
      <note>
        <chord/>
        <pitch>
          <step>C</step>
          <octave>5</octave>
        </pitch>
        <duration>64</duration>
        <voice>1</voice>
        <type>quarter</type>
      </note>
    </measure>
    <measure number="3">
      <attributes/>
      <harmony>
        <root>
          <root-step>F</root-step>
        </root>
        <kind>major</kind>
      </harmony>
      <note>
        <rest/>
        <duration>64</duration>
        <voice>1</voice>
        <type>quarter</type>
      </note>
      <note>
        <pitch>
          <step>F</step>
          <octave>4</octave>
        </pitch>
        <duration>64</duration>
        <voice>1</voice>
        <type>quarter</type>
      </note>
      <note>
        <chord/>
        <pitch>
          <step>A</step>
          <octave>4</octave>
        </pitch>
        <duration>64</duration>
        <voice>1</voice>
        <type>quarter</type>
      </note>
      <note>
        <chord/>
        <pitch>
          <step>C</step>
          <octave>5</octave>
        </pitch>
        <duration>64</duration>
        <voice>1</voice>
        <type>quarter</type>
      </note>
      <note>
        <rest/>
        <duration>64</duration>
        <voice>1</voice>
        <type>quarter</type>
      </note>
      <note>
        <pitch>
          <step>F</step>
          <octave>4</octave>
        </pitch>
        <duration>64</duration>
        <voice>1</voice>
        <type>quarter</type>
      </note>
      <note>
        <chord/>
        <pitch>
          <step>A</step>
          <octave>4</octave>
        </pitch>
        <duration>64</duration>
        <voice>1</voice>
        <type>quarter</type>
      </note>
      <note>
        <chord/>
        <pitch>
          <step>C</step>
          <octave>5</octave>
        </pitch>
        <duration>64</duration>
        <voice>1</voice>
        <type>quarter</type>
      </note>
    </measure>
    <measure number="4">
      <attributes/>
      <harmony>
        <root>
          <root-step>C</root-step>
        </root>
        <kind>major</kind>
      </harmony>
      <note>
        <rest/>
        <duration>64</duration>
        <voice>1</voice>
        <type>quarter</type>
      </note>
      <note>
        <pitch>
          <step>E</step>
          <octave>4</octave>
        </pitch>
        <duration>64</duration>
        <voice>1</voice>
        <type>quarter</type>
      </note>
      <note>
        <chord/>
        <pitch>
          <step>G</step>
          <octave>4</octave>
        </pitch>
        <duration>64</duration>
        <voice>1</voice>
        <type>quarter</type>
      </note>
      <note>
        <chord/>
        <pitch>
          <step>C</step>
          <octave>5</octave>
        </pitch>
        <duration>64</duration>
        <voice>1</voice>
        <type>quarter</type>
      </note>
      <note>
        <rest/>
        <duration>64</duration>
        <voice>1</voice>
        <type>quarter</type>
      </note>
      <note>
        <pitch>
          <step>E</step>
          <octave>4</octave>
        </pitch>
        <duration>64</duration>
        <voice>1</voice>
        <type>quarter</type>
      </note>
      <note>
        <chord/>
        <pitch>
          <step>G</step>
          <octave>4</octave>
        </pitch>
        <duration>64</duration>
        <voice>1</voice>
        <type>quarter</type>
      </note>
      <note>
        <chord/>
        <pitch>
          <step>C</step>
          <octave>5</octave>
        </pitch>
        <duration>64</duration>
        <voice>1</voice>
        <type>quarter</type>
      </note>
    </measure>
    <measure number="5">
      <attributes/>
      <harmony>
        <root>
          <root-step>C</root-step>
        </root>
        <kind>major</kind>
      </harmony>
      <note>
        <rest/>
        <duration>64</duration>
        <voice>1</voice>
        <type>quarter</type>
      </note>
      <note>
        <pitch>
          <step>E</step>
          <octave>4</octave>
        </pitch>
        <duration>64</duration>
        <voice>1</voice>
        <type>quarter</type>
      </note>
      <note>
        <chord/>
        <pitch>
          <step>G</step>
          <octave>4</octave>
        </pitch>
        <duration>64</duration>
        <voice>1</voice>
        <type>quarter</type>
      </note>
      <note>
        <chord/>
        <pitch>
          <step>C</step>
          <octave>5</octave>
        </pitch>
        <duration>64</duration>
        <voice>1</voice>
        <type>quarter</type>
      </note>
      <note>
        <rest/>
        <duration>64</duration>
        <voice>1</voice>
        <type>quarter</type>
      </note>
      <note>
        <pitch>
          <step>E</step>
          <octave>4</octave>
        </pitch>
        <duration>64</duration>
        <voice>1</voice>
        <type>quarter</type>
      </note>
      <note>
        <chord/>
        <pitch>
          <step>G</step>
          <octave>4</octave>
        </pitch>
        <duration>64</duration>
        <voice>1</voice>
        <type>quarter</type>
      </note>
      <note>
        <chord/>
        <pitch>
          <step>C</step>
          <octave>5</octave>
        </pitch>
        <duration>64</duration>
        <voice>1</voice>
        <type>quarter</type>
      </note>
    </measure>
    <measure number="6">
      <attributes/>
      <harmony>
        <root>
          <root-step>C</root-step>
        </root>
        <kind>major</kind>
      </harmony>
      <note>
        <rest/>
        <duration>64</duration>
        <voice>1</voice>
        <type>quarter</type>
      </note>
      <note>
        <pitch>
          <step>E</step>
          <octave>4</octave>
        </pitch>
        <duration>64</duration>
        <voice>1</voice>
        <type>quarter</type>
      </note>
      <note>
        <chord/>
        <pitch>
          <step>G</step>
          <octave>4</octave>
        </pitch>
        <duration>64</duration>
        <voice>1</voice>
        <type>quarter</type>
      </note>
      <note>
        <chord/>
        <pitch>
          <step>C</step>
          <octave>5</octave>
        </pitch>
        <duration>64</duration>
        <voice>1</voice>
        <type>quarter</type>
      </note>
      <note>
        <rest/>
        <duration>64</duration>
        <voice>1</voice>
        <type>quarter</type>
      </note>
      <note>
        <pitch>
          <step>E</step>
          <octave>4</octave>
        </pitch>
        <duration>64</duration>
        <voice>1</voice>
        <type>quarter</type>
      </note>
      <note>
        <chord/>
        <pitch>
          <step>G</step>
          <octave>4</octave>
        </pitch>
        <duration>64</duration>
        <voice>1</voice>
        <type>quarter</type>
      </note>
      <note>
        <chord/>
        <pitch>
          <step>C</step>
          <octave>5</octave>
        </pitch>
        <duration>64</duration>
        <voice>1</voice>
        <type>quarter</type>
      </note>
    </measure>
    <measure number="7">
      <attributes/>
      <harmony>
        <root>
          <root-step>C</root-step>
        </root>
        <kind>major</kind>
      </harmony>
      <harmony>
        <root>
          <root-step>C</root-step>
        </root>
        <kind>major</kind>
      </harmony>
      <harmony>
        <root>
          <root-step>C</root-step>
        </root>
        <kind>major</kind>
      </harmony>
      <note>
        <rest/>
        <duration>64</duration>
        <voice>1</voice>
        <type>quarter</type>
      </note>
      <note>
        <pitch>
          <step>E</step>
          <octave>4</octave>
        </pitch>
        <duration>64</duration>
        <voice>1</voice>
        <type>quarter</type>
      </note>
      <note>
        <chord/>
        <pitch>
          <step>G</step>
          <octave>4</octave>
        </pitch>
        <duration>64</duration>
        <voice>1</voice>
        <type>quarter</type>
      </note>
      <note>
        <chord/>
        <pitch>
          <step>C</step>
          <octave>5</octave>
        </pitch>
        <duration>64</duration>
        <voice>1</voice>
        <type>quarter</type>
      </note>
      <note>
        <rest/>
        <duration>64</duration>
        <voice>1</voice>
        <type>quarter</type>
      </note>
      <note>
        <pitch>
          <step>E</step>
          <octave>4</octave>
        </pitch>
        <duration>64</duration>
        <voice>1</voice>
        <type>quarter</type>
      </note>
      <note>
        <chord/>
        <pitch>
          <step>G</step>
          <octave>4</octave>
        </pitch>
        <duration>64</duration>
        <voice>1</voice>
        <type>quarter</type>
      </note>
      <note>
        <chord/>
        <pitch>
          <step>C</step>
          <octave>5</octave>
        </pitch>
        <duration>64</duration>
        <voice>1</voice>
        <type>quarter</type>
      </note>
    </measure>
    <measure number="8">
      <attributes/>
      <harmony>
        <root>
          <root-step>F</root-step>
        </root>
        <kind>major</kind>
      </harmony>
      <harmony>
        <root>
          <root-step>F</root-step>
        </root>
        <kind>major</kind>
      </harmony>
      <harmony>
        <root>
          <root-step>F</root-step>
        </root>
        <kind>major</kind>
      </harmony>
      <note>
        <rest/>
        <duration>64</duration>
        <voice>1</voice>
        <type>quarter</type>
      </note>
      <note>
        <pitch>
          <step>F</step>
          <octave>4</octave>
        </pitch>
        <duration>64</duration>
        <voice>1</voice>
        <type>quarter</type>
      </note>
      <note>
        <chord/>
        <pitch>
          <step>A</step>
          <octave>4</octave>
        </pitch>
        <duration>64</duration>
        <voice>1</voice>
        <type>quarter</type>
      </note>
      <note>
        <chord/>
        <pitch>
          <step>C</step>
          <octave>5</octave>
        </pitch>
        <duration>64</duration>
        <voice>1</voice>
        <type>quarter</type>
      </note>
      <note>
        <rest/>
        <duration>64</duration>
        <voice>1</voice>
        <type>quarter</type>
      </note>
      <note>
        <pitch>
          <step>F</step>
          <octave>4</octave>
        </pitch>
        <duration>64</duration>
        <voice>1</voice>
        <type>quarter</type>
      </note>
      <note>
        <chord/>
        <pitch>
          <step>A</step>
          <octave>4</octave>
        </pitch>
        <duration>64</duration>
        <voice>1</voice>
        <type>quarter</type>
      </note>
      <note>
        <chord/>
        <pitch>
          <step>C</step>
          <octave>5</octave>
        </pitch>
        <duration>64</duration>
        <voice>1</voice>
        <type>quarter</type>
      </note>
      <barline location="right">
        <bar-style>light-heavy</bar-style>
        <repeat direction="backward"/>
      </barline>
    </measure>
  </part>
  <part id="P3">
    <measure number="1">
      <attributes>
        <divisions>64</divisions>
        <key>
          <fifths>0</fifths>
          <mode>major</mode>
        </key>
        <time>
          <beats>4</beats>
          <beat-type>4</beat-type>
        </time>
        <clef number="1">
          <sign>G</sign>
          <line>2</line>
        </clef>
        <transpose>
          <chromatic>0</chromatic>
          <octave-change>-1</octave-change>
        </transpose>
      </attributes>
      <direction placement="above">
        <direction-type>
          <metronome>
            <beat-unit>quarter</beat-unit>
            <per-minute>120</per-minute>
          </metronome>
        </direction-type>
        <sound tempo="120"/>
      </direction>
      <harmony>
        <root>
          <root-step>F</root-step>
        </root>
        <kind>major</kind>
      </harmony>
      <harmony>
        <root>
          <root-step>F</root-step>
        </root>
        <kind>major</kind>
      </harmony>
      <harmony>
        <root>
          <root-step>F</root-step>
        </root>
        <kind>major</kind>
      </harmony>
      <note>
        <pitch>
          <step>F</step>
          <octave>4</octave>
        </pitch>
        <duration>64</duration>
        <voice>1</voice>
        <type>quarter</type>
      </note>
      <note>
        <rest/>
        <duration>64</duration>
        <voice>1</voice>
        <type>quarter</type>
      </note>
      <note>
        <pitch>
          <step>F</step>
          <octave>4</octave>
        </pitch>
        <duration>64</duration>
        <voice>1</voice>
        <type>quarter</type>
      </note>
      <note>
        <rest/>
        <duration>64</duration>
        <voice>1</voice>
        <type>quarter</type>
      </note>
    </measure>
    <measure number="2">
      <attributes/>
      <harmony>
        <root>
          <root-step>F</root-step>
        </root>
        <kind>major</kind>
      </harmony>
      <harmony>
        <root>
          <root-step>F</root-step>
        </root>
        <kind>major</kind>
      </harmony>
      <harmony>
        <root>
          <root-step>F</root-step>
        </root>
        <kind>major</kind>
      </harmony>
      <note>
        <pitch>
          <step>F</step>
          <octave>4</octave>
        </pitch>
        <duration>64</duration>
        <voice>1</voice>
        <type>quarter</type>
      </note>
      <note>
        <rest/>
        <duration>64</duration>
        <voice>1</voice>
        <type>quarter</type>
      </note>
      <note>
        <pitch>
          <step>F</step>
          <octave>4</octave>
        </pitch>
        <duration>64</duration>
        <voice>1</voice>
        <type>quarter</type>
      </note>
      <note>
        <rest/>
        <duration>64</duration>
        <voice>1</voice>
        <type>quarter</type>
      </note>
    </measure>
    <measure number="3">
      <attributes/>
      <harmony>
        <root>
          <root-step>F</root-step>
        </root>
        <kind>major</kind>
      </harmony>
      <note>
        <pitch>
          <step>F</step>
          <octave>4</octave>
        </pitch>
        <duration>64</duration>
        <voice>1</voice>
        <type>quarter</type>
      </note>
      <note>
        <rest/>
        <duration>64</duration>
        <voice>1</voice>
        <type>quarter</type>
      </note>
      <note>
        <pitch>
          <step>F</step>
          <octave>4</octave>
        </pitch>
        <duration>64</duration>
        <voice>1</voice>
        <type>quarter</type>
      </note>
      <note>
        <rest/>
        <duration>64</duration>
        <voice>1</voice>
        <type>quarter</type>
      </note>
    </measure>
    <measure number="4">
      <attributes/>
      <harmony>
        <root>
          <root-step>C</root-step>
        </root>
        <kind>major</kind>
      </harmony>
      <note>
        <pitch>
          <step>C</step>
          <octave>4</octave>
        </pitch>
        <duration>64</duration>
        <voice>1</voice>
        <type>quarter</type>
      </note>
      <note>
        <rest/>
        <duration>64</duration>
        <voice>1</voice>
        <type>quarter</type>
      </note>
      <note>
        <pitch>
          <step>C</step>
          <octave>4</octave>
        </pitch>
        <duration>64</duration>
        <voice>1</voice>
        <type>quarter</type>
      </note>
      <note>
        <rest/>
        <duration>64</duration>
        <voice>1</voice>
        <type>quarter</type>
      </note>
    </measure>
    <measure number="5">
      <attributes/>
      <harmony>
        <root>
          <root-step>C</root-step>
        </root>
        <kind>major</kind>
      </harmony>
      <note>
        <pitch>
          <step>C</step>
          <octave>4</octave>
        </pitch>
        <duration>64</duration>
        <voice>1</voice>
        <type>quarter</type>
      </note>
      <note>
        <rest/>
        <duration>64</duration>
        <voice>1</voice>
        <type>quarter</type>
      </note>
      <note>
        <pitch>
          <step>C</step>
          <octave>4</octave>
        </pitch>
        <duration>64</duration>
        <voice>1</voice>
        <type>quarter</type>
      </note>
      <note>
        <rest/>
        <duration>64</duration>
        <voice>1</voice>
        <type>quarter</type>
      </note>
    </measure>
    <measure number="6">
      <attributes/>
      <harmony>
        <root>
          <root-step>C</root-step>
        </root>
        <kind>major</kind>
      </harmony>
      <note>
        <pitch>
          <step>C</step>
          <octave>4</octave>
        </pitch>
        <duration>64</duration>
        <voice>1</voice>
        <type>quarter</type>
      </note>
      <note>
        <rest/>
        <duration>64</duration>
        <voice>1</voice>
        <type>quarter</type>
      </note>
      <note>
        <pitch>
          <step>C</step>
          <octave>4</octave>
        </pitch>
        <duration>64</duration>
        <voice>1</voice>
        <type>quarter</type>
      </note>
      <note>
        <rest/>
        <duration>64</duration>
        <voice>1</voice>
        <type>quarter</type>
      </note>
    </measure>
    <measure number="7">
      <attributes/>
      <harmony>
        <root>
          <root-step>C</root-step>
        </root>
        <kind>major</kind>
      </harmony>
      <harmony>
        <root>
          <root-step>C</root-step>
        </root>
        <kind>major</kind>
      </harmony>
      <harmony>
        <root>
          <root-step>C</root-step>
        </root>
        <kind>major</kind>
      </harmony>
      <note>
        <pitch>
          <step>C</step>
          <octave>4</octave>
        </pitch>
        <duration>64</duration>
        <voice>1</voice>
        <type>quarter</type>
      </note>
      <note>
        <rest/>
        <duration>64</duration>
        <voice>1</voice>
        <type>quarter</type>
      </note>
      <note>
        <pitch>
          <step>C</step>
          <octave>4</octave>
        </pitch>
        <duration>64</duration>
        <voice>1</voice>
        <type>quarter</type>
      </note>
      <note>
        <rest/>
        <duration>64</duration>
        <voice>1</voice>
        <type>quarter</type>
      </note>
    </measure>
    <measure number="8">
      <attributes/>
      <harmony>
        <root>
          <root-step>F</root-step>
        </root>
        <kind>major</kind>
      </harmony>
      <harmony>
        <root>
          <root-step>F</root-step>
        </root>
        <kind>major</kind>
      </harmony>
      <harmony>
        <root>
          <root-step>F</root-step>
        </root>
        <kind>major</kind>
      </harmony>
      <note>
        <pitch>
          <step>F</step>
          <octave>4</octave>
        </pitch>
        <duration>64</duration>
        <voice>1</voice>
        <type>quarter</type>
      </note>
      <note>
        <rest/>
        <duration>64</duration>
        <voice>1</voice>
        <type>quarter</type>
      </note>
      <note>
        <pitch>
          <step>F</step>
          <octave>4</octave>
        </pitch>
        <duration>64</duration>
        <voice>1</voice>
        <type>quarter</type>
      </note>
      <note>
        <rest/>
        <duration>64</duration>
        <voice>1</voice>
        <type>quarter</type>
      </note>
      <barline location="right">
        <bar-style>light-heavy</bar-style>
        <repeat direction="backward"/>
      </barline>
    </measure>
  </part>
  <part id="P4">
    <measure number="1">
      <attributes>
        <divisions>64</divisions>
        <time>
          <beats>4</beats>
          <beat-type>4</beat-type>
        </time>
        <clef number="1">
          <sign>percussion</sign>
        </clef>
      </attributes>
      <direction placement="above">
        <direction-type>
          <metronome>
            <beat-unit>quarter</beat-unit>
            <per-minute>120</per-minute>
          </metronome>
        </direction-type>
        <sound tempo="120"/>
      </direction>
      <harmony>
        <root>
          <root-step>F</root-step>
        </root>
        <kind>major</kind>
      </harmony>
      <note>
        <unpitched>
          <display-step>F</display-step>
          <display-octave>4</display-octave>
        </unpitched>
        <duration>32</duration>
        <voice>1</voice>
        <type>eighth</type>
        <beam number="1">begin</beam>
      </note>
      <note>
        <chord/>
        <unpitched>
          <display-step>G</display-step>
          <display-octave>5</display-octave>
        </unpitched>
        <duration>32</duration>
        <voice>1</voice>
        <type>eighth</type>
        <notehead>x</notehead>
        <beam number="1">begin</beam>
      </note>
      <note>
        <unpitched>
          <display-step>G</display-step>
          <display-octave>5</display-octave>
        </unpitched>
        <duration>32</duration>
        <voice>1</voice>
        <type>eighth</type>
        <notehead>x</notehead>
        <beam number="1">continue</beam>
      </note>
      <note>
        <unpitched>
          <display-step>C</display-step>
          <display-octave>5</display-octave>
        </unpitched>
        <duration>32</duration>
        <voice>1</voice>
        <type>eighth</type>
        <beam number="1">continue</beam>
      </note>
      <note>
        <chord/>
        <unpitched>
          <display-step>G</display-step>
          <display-octave>5</display-octave>
        </unpitched>
        <duration>32</duration>
        <voice>1</voice>
        <type>eighth</type>
        <notehead>x</notehead>
        <beam number="1">continue</beam>
      </note>
      <note>
        <unpitched>
          <display-step>G</display-step>
          <display-octave>5</display-octave>
        </unpitched>
        <duration>32</duration>
        <voice>1</voice>
        <type>eighth</type>
        <notehead>x</notehead>
        <beam number="1">end</beam>
      </note>
      <note>
        <unpitched>
          <display-step>F</display-step>
          <display-octave>4</display-octave>
        </unpitched>
        <duration>32</duration>
        <voice>1</voice>
        <type>eighth</type>
        <beam number="1">begin</beam>
      </note>
      <note>
        <chord/>
        <unpitched>
          <display-step>G</display-step>
          <display-octave>5</display-octave>
        </unpitched>
        <duration>32</duration>
        <voice>1</voice>
        <type>eighth</type>
        <notehead>x</notehead>
        <beam number="1">begin</beam>
      </note>
      <note>
        <unpitched>
          <display-step>G</display-step>
          <display-octave>5</display-octave>
        </unpitched>
        <duration>32</duration>
        <voice>1</voice>
        <type>eighth</type>
        <notehead>x</notehead>
        <beam number="1">continue</beam>
      </note>
      <note>
        <unpitched>
          <display-step>C</display-step>
          <display-octave>5</display-octave>
        </unpitched>
        <duration>32</duration>
        <voice>1</voice>
        <type>eighth</type>
        <beam number="1">continue</beam>
      </note>
      <note>
        <chord/>
        <unpitched>
          <display-step>G</display-step>
          <display-octave>5</display-octave>
        </unpitched>
        <duration>32</duration>
        <voice>1</voice>
        <type>eighth</type>
        <notehead>x</notehead>
        <beam number="1">continue</beam>
      </note>
      <note>
        <unpitched>
          <display-step>G</display-step>
          <display-octave>5</display-octave>
        </unpitched>
        <duration>32</duration>
        <voice>1</voice>
        <type>eighth</type>
        <notehead>x</notehead>
        <beam number="1">end</beam>
      </note>
    </measure>
    <measure number="2">
      <attributes/>
      <harmony>
        <root>
          <root-step>F</root-step>
        </root>
        <kind>major</kind>
      </harmony>
      <harmony>
        <root>
          <root-step>F</root-step>
        </root>
        <kind>major</kind>
      </harmony>
      <harmony>
        <root>
          <root-step>F</root-step>
        </root>
        <kind>major</kind>
      </harmony>
      <note>
        <unpitched>
          <display-step>F</display-step>
          <display-octave>4</display-octave>
        </unpitched>
        <duration>32</duration>
        <voice>1</voice>
        <type>eighth</type>
        <beam number="1">begin</beam>
      </note>
      <note>
        <chord/>
        <unpitched>
          <display-step>G</display-step>
          <display-octave>5</display-octave>
        </unpitched>
        <duration>32</duration>
        <voice>1</voice>
        <type>eighth</type>
        <notehead>x</notehead>
        <beam number="1">begin</beam>
      </note>
      <note>
        <unpitched>
          <display-step>G</display-step>
          <display-octave>5</display-octave>
        </unpitched>
        <duration>32</duration>
        <voice>1</voice>
        <type>eighth</type>
        <notehead>x</notehead>
        <beam number="1">continue</beam>
      </note>
      <note>
        <unpitched>
          <display-step>C</display-step>
          <display-octave>5</display-octave>
        </unpitched>
        <duration>32</duration>
        <voice>1</voice>
        <type>eighth</type>
        <beam number="1">continue</beam>
      </note>
      <note>
        <chord/>
        <unpitched>
          <display-step>G</display-step>
          <display-octave>5</display-octave>
        </unpitched>
        <duration>32</duration>
        <voice>1</voice>
        <type>eighth</type>
        <notehead>x</notehead>
        <beam number="1">continue</beam>
      </note>
      <note>
        <unpitched>
          <display-step>G</display-step>
          <display-octave>5</display-octave>
        </unpitched>
        <duration>32</duration>
        <voice>1</voice>
        <type>eighth</type>
        <notehead>x</notehead>
        <beam number="1">end</beam>
      </note>
      <note>
        <unpitched>
          <display-step>F</display-step>
          <display-octave>4</display-octave>
        </unpitched>
        <duration>32</duration>
        <voice>1</voice>
        <type>eighth</type>
        <beam number="1">begin</beam>
      </note>
      <note>
        <chord/>
        <unpitched>
          <display-step>G</display-step>
          <display-octave>5</display-octave>
        </unpitched>
        <duration>32</duration>
        <voice>1</voice>
        <type>eighth</type>
        <notehead>x</notehead>
        <beam number="1">begin</beam>
      </note>
      <note>
        <unpitched>
          <display-step>G</display-step>
          <display-octave>5</display-octave>
        </unpitched>
        <duration>32</duration>
        <voice>1</voice>
        <type>eighth</type>
        <notehead>x</notehead>
        <beam number="1">continue</beam>
      </note>
      <note>
        <unpitched>
          <display-step>C</display-step>
          <display-octave>5</display-octave>
        </unpitched>
        <duration>32</duration>
        <voice>1</voice>
        <type>eighth</type>
        <beam number="1">continue</beam>
      </note>
      <note>
        <chord/>
        <unpitched>
          <display-step>G</display-step>
          <display-octave>5</display-octave>
        </unpitched>
        <duration>32</duration>
        <voice>1</voice>
        <type>eighth</type>
        <notehead>x</notehead>
        <beam number="1">continue</beam>
      </note>
      <note>
        <unpitched>
          <display-step>G</display-step>
          <display-octave>5</display-octave>
        </unpitched>
        <duration>32</duration>
        <voice>1</voice>
        <type>eighth</type>
        <notehead>x</notehead>
        <beam number="1">end</beam>
      </note>
    </measure>
    <measure number="3">
      <attributes/>
      <harmony>
        <root>
          <root-step>F</root-step>
        </root>
        <kind>major</kind>
      </harmony>
      <harmony>
        <root>
          <root-step>F</root-step>
        </root>
        <kind>major</kind>
      </harmony>
      <harmony>
        <root>
          <root-step>F</root-step>
        </root>
        <kind>major</kind>
      </harmony>
      <note>
        <unpitched>
          <display-step>F</display-step>
          <display-octave>4</display-octave>
        </unpitched>
        <duration>32</duration>
        <voice>1</voice>
        <type>eighth</type>
        <beam number="1">begin</beam>
      </note>
      <note>
        <chord/>
        <unpitched>
          <display-step>G</display-step>
          <display-octave>5</display-octave>
        </unpitched>
        <duration>32</duration>
        <voice>1</voice>
        <type>eighth</type>
        <notehead>x</notehead>
        <beam number="1">begin</beam>
      </note>
      <note>
        <unpitched>
          <display-step>G</display-step>
          <display-octave>5</display-octave>
        </unpitched>
        <duration>32</duration>
        <voice>1</voice>
        <type>eighth</type>
        <notehead>x</notehead>
        <beam number="1">continue</beam>
      </note>
      <note>
        <unpitched>
          <display-step>C</display-step>
          <display-octave>5</display-octave>
        </unpitched>
        <duration>32</duration>
        <voice>1</voice>
        <type>eighth</type>
        <beam number="1">continue</beam>
      </note>
      <note>
        <chord/>
        <unpitched>
          <display-step>G</display-step>
          <display-octave>5</display-octave>
        </unpitched>
        <duration>32</duration>
        <voice>1</voice>
        <type>eighth</type>
        <notehead>x</notehead>
        <beam number="1">continue</beam>
      </note>
      <note>
        <unpitched>
          <display-step>G</display-step>
          <display-octave>5</display-octave>
        </unpitched>
        <duration>32</duration>
        <voice>1</voice>
        <type>eighth</type>
        <notehead>x</notehead>
        <beam number="1">end</beam>
      </note>
      <note>
        <unpitched>
          <display-step>F</display-step>
          <display-octave>4</display-octave>
        </unpitched>
        <duration>32</duration>
        <voice>1</voice>
        <type>eighth</type>
        <beam number="1">begin</beam>
      </note>
      <note>
        <chord/>
        <unpitched>
          <display-step>G</display-step>
          <display-octave>5</display-octave>
        </unpitched>
        <duration>32</duration>
        <voice>1</voice>
        <type>eighth</type>
        <notehead>x</notehead>
        <beam number="1">begin</beam>
      </note>
      <note>
        <unpitched>
          <display-step>G</display-step>
          <display-octave>5</display-octave>
        </unpitched>
        <duration>32</duration>
        <voice>1</voice>
        <type>eighth</type>
        <notehead>x</notehead>
        <beam number="1">continue</beam>
      </note>
      <note>
        <unpitched>
          <display-step>C</display-step>
          <display-octave>5</display-octave>
        </unpitched>
        <duration>32</duration>
        <voice>1</voice>
        <type>eighth</type>
        <beam number="1">continue</beam>
      </note>
      <note>
        <chord/>
        <unpitched>
          <display-step>G</display-step>
          <display-octave>5</display-octave>
        </unpitched>
        <duration>32</duration>
        <voice>1</voice>
        <type>eighth</type>
        <notehead>x</notehead>
        <beam number="1">continue</beam>
      </note>
      <note>
        <unpitched>
          <display-step>G</display-step>
          <display-octave>5</display-octave>
        </unpitched>
        <duration>32</duration>
        <voice>1</voice>
        <type>eighth</type>
        <notehead>x</notehead>
        <beam number="1">end</beam>
      </note>
      <harmony>
        <root>
          <root-step>F</root-step>
        </root>
        <kind>major</kind>
      </harmony>
      <backup>
        <duration>256</duration>
      </backup>
      <note>
        <rest/>
        <duration>256</duration>
        <voice>2</voice>
        <type>whole</type>
      </note>
    </measure>
    <measure number="4">
      <attributes/>
      <harmony>
        <root>
          <root-step>F</root-step>
        </root>
        <kind>major</kind>
      </harmony>
      <harmony>
        <root>
          <root-step>F</root-step>
        </root>
        <kind>major</kind>
      </harmony>
      <harmony>
        <root>
          <root-step>F</root-step>
        </root>
        <kind>major</kind>
      </harmony>
      <note>
        <unpitched>
          <display-step>F</display-step>
          <display-octave>4</display-octave>
        </unpitched>
        <duration>32</duration>
        <voice>1</voice>
        <type>eighth</type>
        <beam number="1">begin</beam>
      </note>
      <note>
        <chord/>
        <unpitched>
          <display-step>G</display-step>
          <display-octave>5</display-octave>
        </unpitched>
        <duration>32</duration>
        <voice>1</voice>
        <type>eighth</type>
        <notehead>x</notehead>
        <beam number="1">begin</beam>
      </note>
      <note>
        <unpitched>
          <display-step>G</display-step>
          <display-octave>5</display-octave>
        </unpitched>
        <duration>32</duration>
        <voice>1</voice>
        <type>eighth</type>
        <notehead>x</notehead>
        <beam number="1">continue</beam>
      </note>
      <note>
        <unpitched>
          <display-step>C</display-step>
          <display-octave>5</display-octave>
        </unpitched>
        <duration>32</duration>
        <voice>1</voice>
        <type>eighth</type>
        <beam number="1">continue</beam>
      </note>
      <note>
        <chord/>
        <unpitched>
          <display-step>G</display-step>
          <display-octave>5</display-octave>
        </unpitched>
        <duration>32</duration>
        <voice>1</voice>
        <type>eighth</type>
        <notehead>x</notehead>
        <beam number="1">continue</beam>
      </note>
      <note>
        <unpitched>
          <display-step>G</display-step>
          <display-octave>5</display-octave>
        </unpitched>
        <duration>32</duration>
        <voice>1</voice>
        <type>eighth</type>
        <notehead>x</notehead>
        <beam number="1">end</beam>
      </note>
      <note>
        <unpitched>
          <display-step>F</display-step>
          <display-octave>4</display-octave>
        </unpitched>
        <duration>32</duration>
        <voice>1</voice>
        <type>eighth</type>
        <beam number="1">begin</beam>
      </note>
      <note>
        <chord/>
        <unpitched>
          <display-step>G</display-step>
          <display-octave>5</display-octave>
        </unpitched>
        <duration>32</duration>
        <voice>1</voice>
        <type>eighth</type>
        <notehead>x</notehead>
        <beam number="1">begin</beam>
      </note>
      <note>
        <unpitched>
          <display-step>G</display-step>
          <display-octave>5</display-octave>
        </unpitched>
        <duration>32</duration>
        <voice>1</voice>
        <type>eighth</type>
        <notehead>x</notehead>
        <beam number="1">continue</beam>
      </note>
      <note>
        <unpitched>
          <display-step>C</display-step>
          <display-octave>5</display-octave>
        </unpitched>
        <duration>32</duration>
        <voice>1</voice>
        <type>eighth</type>
        <beam number="1">continue</beam>
      </note>
      <note>
        <chord/>
        <unpitched>
          <display-step>G</display-step>
          <display-octave>5</display-octave>
        </unpitched>
        <duration>32</duration>
        <voice>1</voice>
        <type>eighth</type>
        <notehead>x</notehead>
        <beam number="1">continue</beam>
      </note>
      <note>
        <unpitched>
          <display-step>G</display-step>
          <display-octave>5</display-octave>
        </unpitched>
        <duration>32</duration>
        <voice>1</voice>
        <type>eighth</type>
        <notehead>x</notehead>
        <beam number="1">end</beam>
      </note>
    </measure>
    <measure number="5">
      <attributes/>
      <harmony>
        <root>
          <root-step>F</root-step>
        </root>
        <kind>major</kind>
      </harmony>
      <harmony>
        <root>
          <root-step>F</root-step>
        </root>
        <kind>major</kind>
      </harmony>
      <harmony>
        <root>
          <root-step>F</root-step>
        </root>
        <kind>major</kind>
      </harmony>
      <note>
        <unpitched>
          <display-step>F</display-step>
          <display-octave>4</display-octave>
        </unpitched>
        <duration>32</duration>
        <voice>1</voice>
        <type>eighth</type>
        <beam number="1">begin</beam>
      </note>
      <note>
        <chord/>
        <unpitched>
          <display-step>G</display-step>
          <display-octave>5</display-octave>
        </unpitched>
        <duration>32</duration>
        <voice>1</voice>
        <type>eighth</type>
        <notehead>x</notehead>
        <beam number="1">begin</beam>
      </note>
      <note>
        <unpitched>
          <display-step>G</display-step>
          <display-octave>5</display-octave>
        </unpitched>
        <duration>32</duration>
        <voice>1</voice>
        <type>eighth</type>
        <notehead>x</notehead>
        <beam number="1">continue</beam>
      </note>
      <note>
        <unpitched>
          <display-step>C</display-step>
          <display-octave>5</display-octave>
        </unpitched>
        <duration>32</duration>
        <voice>1</voice>
        <type>eighth</type>
        <beam number="1">continue</beam>
      </note>
      <note>
        <chord/>
        <unpitched>
          <display-step>G</display-step>
          <display-octave>5</display-octave>
        </unpitched>
        <duration>32</duration>
        <voice>1</voice>
        <type>eighth</type>
        <notehead>x</notehead>
        <beam number="1">continue</beam>
      </note>
      <note>
        <unpitched>
          <display-step>G</display-step>
          <display-octave>5</display-octave>
        </unpitched>
        <duration>32</duration>
        <voice>1</voice>
        <type>eighth</type>
        <notehead>x</notehead>
        <beam number="1">end</beam>
      </note>
      <note>
        <unpitched>
          <display-step>F</display-step>
          <display-octave>4</display-octave>
        </unpitched>
        <duration>32</duration>
        <voice>1</voice>
        <type>eighth</type>
        <beam number="1">begin</beam>
      </note>
      <note>
        <chord/>
        <unpitched>
          <display-step>G</display-step>
          <display-octave>5</display-octave>
        </unpitched>
        <duration>32</duration>
        <voice>1</voice>
        <type>eighth</type>
        <notehead>x</notehead>
        <beam number="1">begin</beam>
      </note>
      <note>
        <unpitched>
          <display-step>G</display-step>
          <display-octave>5</display-octave>
        </unpitched>
        <duration>32</duration>
        <voice>1</voice>
        <type>eighth</type>
        <notehead>x</notehead>
        <beam number="1">continue</beam>
      </note>
      <note>
        <unpitched>
          <display-step>C</display-step>
          <display-octave>5</display-octave>
        </unpitched>
        <duration>32</duration>
        <voice>1</voice>
        <type>eighth</type>
        <beam number="1">continue</beam>
      </note>
      <note>
        <chord/>
        <unpitched>
          <display-step>G</display-step>
          <display-octave>5</display-octave>
        </unpitched>
        <duration>32</duration>
        <voice>1</voice>
        <type>eighth</type>
        <notehead>x</notehead>
        <beam number="1">continue</beam>
      </note>
      <note>
        <unpitched>
          <display-step>G</display-step>
          <display-octave>5</display-octave>
        </unpitched>
        <duration>32</duration>
        <voice>1</voice>
        <type>eighth</type>
        <notehead>x</notehead>
        <beam number="1">end</beam>
      </note>
    </measure>
    <measure number="6">
      <attributes/>
      <harmony>
        <root>
          <root-step>F</root-step>
        </root>
        <kind>major</kind>
      </harmony>
      <harmony>
        <root>
          <root-step>F</root-step>
        </root>
        <kind>major</kind>
      </harmony>
      <harmony>
        <root>
          <root-step>F</root-step>
        </root>
        <kind>major</kind>
      </harmony>
      <note>
        <unpitched>
          <display-step>F</display-step>
          <display-octave>4</display-octave>
        </unpitched>
        <duration>32</duration>
        <voice>1</voice>
        <type>eighth</type>
        <beam number="1">begin</beam>
      </note>
      <note>
        <chord/>
        <unpitched>
          <display-step>G</display-step>
          <display-octave>5</display-octave>
        </unpitched>
        <duration>32</duration>
        <voice>1</voice>
        <type>eighth</type>
        <notehead>x</notehead>
        <beam number="1">begin</beam>
      </note>
      <note>
        <unpitched>
          <display-step>G</display-step>
          <display-octave>5</display-octave>
        </unpitched>
        <duration>32</duration>
        <voice>1</voice>
        <type>eighth</type>
        <notehead>x</notehead>
        <beam number="1">continue</beam>
      </note>
      <note>
        <unpitched>
          <display-step>C</display-step>
          <display-octave>5</display-octave>
        </unpitched>
        <duration>32</duration>
        <voice>1</voice>
        <type>eighth</type>
        <beam number="1">continue</beam>
      </note>
      <note>
        <chord/>
        <unpitched>
          <display-step>G</display-step>
          <display-octave>5</display-octave>
        </unpitched>
        <duration>32</duration>
        <voice>1</voice>
        <type>eighth</type>
        <notehead>x</notehead>
        <beam number="1">continue</beam>
      </note>
      <note>
        <unpitched>
          <display-step>G</display-step>
          <display-octave>5</display-octave>
        </unpitched>
        <duration>32</duration>
        <voice>1</voice>
        <type>eighth</type>
        <notehead>x</notehead>
        <beam number="1">end</beam>
      </note>
      <note>
        <unpitched>
          <display-step>F</display-step>
          <display-octave>4</display-octave>
        </unpitched>
        <duration>32</duration>
        <voice>1</voice>
        <type>eighth</type>
        <beam number="1">begin</beam>
      </note>
      <note>
        <chord/>
        <unpitched>
          <display-step>G</display-step>
          <display-octave>5</display-octave>
        </unpitched>
        <duration>32</duration>
        <voice>1</voice>
        <type>eighth</type>
        <notehead>x</notehead>
        <beam number="1">begin</beam>
      </note>
      <note>
        <unpitched>
          <display-step>G</display-step>
          <display-octave>5</display-octave>
        </unpitched>
        <duration>32</duration>
        <voice>1</voice>
        <type>eighth</type>
        <notehead>x</notehead>
        <beam number="1">continue</beam>
      </note>
      <note>
        <unpitched>
          <display-step>C</display-step>
          <display-octave>5</display-octave>
        </unpitched>
        <duration>32</duration>
        <voice>1</voice>
        <type>eighth</type>
        <beam number="1">continue</beam>
      </note>
      <note>
        <chord/>
        <unpitched>
          <display-step>G</display-step>
          <display-octave>5</display-octave>
        </unpitched>
        <duration>32</duration>
        <voice>1</voice>
        <type>eighth</type>
        <notehead>x</notehead>
        <beam number="1">continue</beam>
      </note>
      <note>
        <unpitched>
          <display-step>G</display-step>
          <display-octave>5</display-octave>
        </unpitched>
        <duration>32</duration>
        <voice>1</voice>
        <type>eighth</type>
        <notehead>x</notehead>
        <beam number="1">end</beam>
      </note>
    </measure>
    <measure number="7">
      <attributes/>
      <harmony>
        <root>
          <root-step>F</root-step>
        </root>
        <kind>major</kind>
      </harmony>
      <harmony>
        <root>
          <root-step>F</root-step>
        </root>
        <kind>major</kind>
      </harmony>
      <harmony>
        <root>
          <root-step>F</root-step>
        </root>
        <kind>major</kind>
      </harmony>
      <note>
        <unpitched>
          <display-step>F</display-step>
          <display-octave>4</display-octave>
        </unpitched>
        <duration>32</duration>
        <voice>1</voice>
        <type>eighth</type>
        <beam number="1">begin</beam>
      </note>
      <note>
        <chord/>
        <unpitched>
          <display-step>G</display-step>
          <display-octave>5</display-octave>
        </unpitched>
        <duration>32</duration>
        <voice>1</voice>
        <type>eighth</type>
        <notehead>x</notehead>
        <beam number="1">begin</beam>
      </note>
      <note>
        <unpitched>
          <display-step>G</display-step>
          <display-octave>5</display-octave>
        </unpitched>
        <duration>32</duration>
        <voice>1</voice>
        <type>eighth</type>
        <notehead>x</notehead>
        <beam number="1">continue</beam>
      </note>
      <note>
        <unpitched>
          <display-step>C</display-step>
          <display-octave>5</display-octave>
        </unpitched>
        <duration>32</duration>
        <voice>1</voice>
        <type>eighth</type>
        <beam number="1">continue</beam>
      </note>
      <note>
        <chord/>
        <unpitched>
          <display-step>G</display-step>
          <display-octave>5</display-octave>
        </unpitched>
        <duration>32</duration>
        <voice>1</voice>
        <type>eighth</type>
        <notehead>x</notehead>
        <beam number="1">continue</beam>
      </note>
      <note>
        <unpitched>
          <display-step>G</display-step>
          <display-octave>5</display-octave>
        </unpitched>
        <duration>32</duration>
        <voice>1</voice>
        <type>eighth</type>
        <notehead>x</notehead>
        <beam number="1">end</beam>
      </note>
      <note>
        <unpitched>
          <display-step>F</display-step>
          <display-octave>4</display-octave>
        </unpitched>
        <duration>32</duration>
        <voice>1</voice>
        <type>eighth</type>
        <beam number="1">begin</beam>
      </note>
      <note>
        <chord/>
        <unpitched>
          <display-step>G</display-step>
          <display-octave>5</display-octave>
        </unpitched>
        <duration>32</duration>
        <voice>1</voice>
        <type>eighth</type>
        <notehead>x</notehead>
        <beam number="1">begin</beam>
      </note>
      <note>
        <unpitched>
          <display-step>G</display-step>
          <display-octave>5</display-octave>
        </unpitched>
        <duration>32</duration>
        <voice>1</voice>
        <type>eighth</type>
        <notehead>x</notehead>
        <beam number="1">continue</beam>
      </note>
      <note>
        <unpitched>
          <display-step>C</display-step>
          <display-octave>5</display-octave>
        </unpitched>
        <duration>32</duration>
        <voice>1</voice>
        <type>eighth</type>
        <beam number="1">continue</beam>
      </note>
      <note>
        <chord/>
        <unpitched>
          <display-step>G</display-step>
          <display-octave>5</display-octave>
        </unpitched>
        <duration>32</duration>
        <voice>1</voice>
        <type>eighth</type>
        <notehead>x</notehead>
        <beam number="1">continue</beam>
      </note>
      <note>
        <unpitched>
          <display-step>G</display-step>
          <display-octave>5</display-octave>
        </unpitched>
        <duration>32</duration>
        <voice>1</voice>
        <type>eighth</type>
        <notehead>x</notehead>
        <beam number="1">end</beam>
      </note>
    </measure>
    <measure number="8">
      <attributes/>
      <harmony>
        <root>
          <root-step>F</root-step>
        </root>
        <kind>major</kind>
      </harmony>
      <harmony>
        <root>
          <root-step>F</root-step>
        </root>
        <kind>major</kind>
      </harmony>
      <harmony>
        <root>
          <root-step>F</root-step>
        </root>
        <kind>major</kind>
      </harmony>
      <note>
        <unpitched>
          <display-step>F</display-step>
          <display-octave>4</display-octave>
        </unpitched>
        <duration>32</duration>
        <voice>1</voice>
        <type>eighth</type>
        <beam number="1">begin</beam>
      </note>
      <note>
        <chord/>
        <unpitched>
          <display-step>G</display-step>
          <display-octave>5</display-octave>
        </unpitched>
        <duration>32</duration>
        <voice>1</voice>
        <type>eighth</type>
        <notehead>x</notehead>
        <beam number="1">begin</beam>
      </note>
      <note>
        <unpitched>
          <display-step>G</display-step>
          <display-octave>5</display-octave>
        </unpitched>
        <duration>32</duration>
        <voice>1</voice>
        <type>eighth</type>
        <notehead>x</notehead>
        <beam number="1">continue</beam>
      </note>
      <note>
        <unpitched>
          <display-step>C</display-step>
          <display-octave>5</display-octave>
        </unpitched>
        <duration>32</duration>
        <voice>1</voice>
        <type>eighth</type>
        <beam number="1">continue</beam>
      </note>
      <note>
        <chord/>
        <unpitched>
          <display-step>G</display-step>
          <display-octave>5</display-octave>
        </unpitched>
        <duration>32</duration>
        <voice>1</voice>
        <type>eighth</type>
        <notehead>x</notehead>
        <beam number="1">continue</beam>
      </note>
      <note>
        <unpitched>
          <display-step>G</display-step>
          <display-octave>5</display-octave>
        </unpitched>
        <duration>32</duration>
        <voice>1</voice>
        <type>eighth</type>
        <notehead>x</notehead>
        <beam number="1">end</beam>
      </note>
      <note>
        <unpitched>
          <display-step>F</display-step>
          <display-octave>4</display-octave>
        </unpitched>
        <duration>32</duration>
        <voice>1</voice>
        <type>eighth</type>
        <beam number="1">begin</beam>
      </note>
      <note>
        <chord/>
        <unpitched>
          <display-step>G</display-step>
          <display-octave>5</display-octave>
        </unpitched>
        <duration>32</duration>
        <voice>1</voice>
        <type>eighth</type>
        <notehead>x</notehead>
        <beam number="1">begin</beam>
      </note>
      <note>
        <unpitched>
          <display-step>G</display-step>
          <display-octave>5</display-octave>
        </unpitched>
        <duration>32</duration>
        <voice>1</voice>
        <type>eighth</type>
        <notehead>x</notehead>
        <beam number="1">continue</beam>
      </note>
      <note>
        <unpitched>
          <display-step>C</display-step>
          <display-octave>5</display-octave>
        </unpitched>
        <duration>32</duration>
        <voice>1</voice>
        <type>eighth</type>
        <beam number="1">continue</beam>
      </note>
      <note>
        <chord/>
        <unpitched>
          <display-step>G</display-step>
          <display-octave>5</display-octave>
        </unpitched>
        <duration>32</duration>
        <voice>1</voice>
        <type>eighth</type>
        <notehead>x</notehead>
        <beam number="1">continue</beam>
      </note>
      <note>
        <unpitched>
          <display-step>G</display-step>
          <display-octave>5</display-octave>
        </unpitched>
        <duration>32</duration>
        <voice>1</voice>
        <type>eighth</type>
        <notehead>x</notehead>
        <beam number="1">end</beam>
      </note>
      <barline location="right">
        <bar-style>light-heavy</bar-style>
        <repeat direction="backward"/>
      </barline>
    </measure>
  </part>
</score-partwise>